<svg width="127" height="70" viewBox="0 0 127 70" fill="none" xmlns="http://www.w3.org/2000/svg">
<rect x="1" y="1" width="125" height="68" rx="10" fill="white" stroke="#00A2E9" stroke-width="2"/>
<path d="M53.6129 17.68C53.2929 18.512 52.8609 19.728 52.3169 21.328C51.7729 22.896 51.2609 24.944 50.7809 27.472H49.8209C49.9169 27.024 49.9809 26.56 50.0129 26.08C50.0769 25.6 50.1089 25.184 50.1089 24.832C50.1089 23.52 49.8209 22.416 49.2449 21.52C48.7009 20.592 47.9169 19.888 46.8929 19.408C45.8689 18.896 44.6369 18.64 43.1969 18.64C41.8209 18.64 40.6049 18.992 39.5489 19.696C38.5249 20.4 38.0129 21.6 38.0129 23.296C38.0129 24.384 38.2689 25.456 38.7809 26.512C39.2929 27.536 39.9489 28.56 40.7489 29.584C41.5809 30.608 42.4449 31.648 43.3409 32.704C44.2689 33.728 45.1329 34.784 45.9329 35.872C46.7649 36.928 47.4369 38.048 47.9489 39.232C48.4609 40.416 48.7169 41.664 48.7169 42.976C48.7169 44.736 48.2529 46.24 47.3249 47.488C46.3969 48.704 45.2129 49.696 43.7729 50.464C42.3329 51.232 40.8129 51.792 39.2129 52.144C37.6129 52.496 36.1249 52.672 34.7489 52.672C33.0849 52.672 31.7249 52.592 30.6689 52.432C29.6129 52.272 28.7009 52.032 27.9329 51.712C27.1649 51.36 26.3329 50.944 25.4369 50.464C25.1169 50.272 24.8129 50.112 24.5249 49.984C24.2369 49.824 23.9969 49.744 23.8049 49.744C23.3889 49.744 23.0529 49.92 22.7969 50.272C22.5409 50.624 22.1889 51.312 21.7409 52.336H20.7809C21.0689 51.632 21.3729 50.816 21.6929 49.888C22.0129 48.96 22.3649 47.776 22.7489 46.336C23.1329 44.864 23.5649 43.024 24.0449 40.816H25.0049C24.8449 41.296 24.7169 41.904 24.6209 42.64C24.5569 43.344 24.5409 43.984 24.5729 44.56C24.6689 46.896 25.4049 48.656 26.7809 49.84C28.1569 50.992 30.0289 51.568 32.3969 51.568C34.6369 51.568 36.1249 51.152 36.8609 50.32C37.6289 49.456 38.0129 48.4 38.0129 47.152C38.0129 45.808 37.7729 44.56 37.2929 43.408C36.8449 42.224 36.2529 41.12 35.5169 40.096C34.7809 39.04 33.9969 38.016 33.1649 37.024C32.3649 36 31.5969 34.976 30.8609 33.952C30.1249 32.928 29.5169 31.856 29.0369 30.736C28.5889 29.584 28.3649 28.368 28.3649 27.088C28.3649 25.392 28.7489 23.936 29.5169 22.72C30.3169 21.504 31.3569 20.496 32.6369 19.696C33.9169 18.896 35.2929 18.304 36.7649 17.92C38.2369 17.536 39.6449 17.344 40.9889 17.344C43.2609 17.344 45.0689 17.632 46.4129 18.208C47.7569 18.752 48.7809 19.2 49.4849 19.552C49.7409 19.68 50.0289 19.824 50.3489 19.984C50.6689 20.144 50.9089 20.224 51.0689 20.224C51.5169 20.224 52.0449 19.376 52.6529 17.68H53.6129ZM64.2869 46.912C63.9989 48.064 63.8709 48.928 63.9029 49.504C63.9349 50.08 64.2069 50.464 64.7189 50.656C65.2309 50.848 66.0309 50.976 67.1189 51.04L66.9269 52C65.9029 51.936 64.5749 51.904 62.9429 51.904C61.3109 51.872 59.6469 51.856 57.9509 51.856C56.2229 51.856 54.6069 51.872 53.1029 51.904C51.5989 51.904 50.3829 51.936 49.4549 52L49.6949 51.04C50.7509 50.976 51.5669 50.848 52.1429 50.656C52.7509 50.464 53.2309 50.08 53.5829 49.504C53.9349 48.928 54.2549 48.064 54.5429 46.912L60.8789 23.104C61.1989 21.92 61.3269 21.056 61.2629 20.512C61.1989 19.936 60.9109 19.552 60.3989 19.36C59.9189 19.136 59.1349 19.008 58.0469 18.976L58.2869 18.016C59.1829 18.048 60.3829 18.08 61.8869 18.112C63.4229 18.144 65.0549 18.16 66.7829 18.16C68.4789 18.16 70.1109 18.144 71.6789 18.112C73.2469 18.08 74.6229 18.048 75.8069 18.016L75.5669 18.976C74.4789 19.008 73.6309 19.136 73.0229 19.36C72.4149 19.552 71.9349 19.936 71.5829 20.512C71.2629 21.056 70.9429 21.92 70.6229 23.104L64.2869 46.912ZM83.8649 38.368L84.1049 37.408H86.2649C88.2169 37.408 89.8489 36.976 91.1609 36.112C92.5049 35.248 93.5769 34.144 94.3769 32.8C95.1769 31.424 95.7529 29.968 96.1049 28.432C96.4569 26.864 96.6329 25.392 96.6329 24.016C96.6329 22.416 96.3449 21.184 95.7689 20.32C95.1929 19.424 94.2489 18.976 92.9369 18.976C92.4889 18.976 92.1529 19.088 91.9289 19.312C91.7369 19.536 91.5769 19.952 91.4489 20.56C91.3209 21.136 91.1129 21.984 90.8249 23.104L84.4889 46.912C84.2649 47.808 84.1689 48.56 84.2009 49.168C84.2329 49.744 84.4889 50.192 84.9689 50.512C85.4809 50.8 86.2649 50.976 87.3209 51.04L87.1289 52C86.0409 51.936 84.7769 51.904 83.3369 51.904C81.8969 51.872 80.3769 51.856 78.7769 51.856C76.9529 51.856 75.2089 51.872 73.5449 51.904C71.9129 51.904 70.6169 51.936 69.6569 52L69.8489 51.04C70.9369 50.976 71.7849 50.848 72.3929 50.656C73.0009 50.464 73.4809 50.08 73.8329 49.504C74.1849 48.928 74.5049 48.064 74.7929 46.912L81.1289 23.104C81.3209 22.144 81.4169 21.376 81.4169 20.8C81.4489 20.224 81.2409 19.792 80.7929 19.504C80.3449 19.216 79.5129 19.04 78.2969 18.976L78.5369 18.016C79.4649 18.048 80.7449 18.08 82.3769 18.112C84.0409 18.144 85.6889 18.16 87.3209 18.16C88.4729 18.16 89.6249 18.144 90.7769 18.112C91.9609 18.08 93.1449 18.064 94.3289 18.064C98.5529 18.064 101.673 18.656 103.689 19.84C105.737 21.024 106.761 22.848 106.761 25.312C106.761 27.808 105.881 30.048 104.121 32.032C102.361 33.984 99.8969 35.536 96.7289 36.688C93.5929 37.808 89.9449 38.368 85.7849 38.368H83.8649Z" fill="#FF2667"/>
<path d="M53.6129 17.68L54.5463 18.039L55.069 16.68H53.6129V17.68ZM52.3169 21.328L53.2617 21.6558L53.2637 21.6499L52.3169 21.328ZM50.7809 27.472V28.472H51.6089L51.7634 27.6585L50.7809 27.472ZM49.8209 27.472L48.8431 27.2625L48.584 28.472H49.8209V27.472ZM50.0129 26.08L49.0217 25.9478L49.0173 25.9805L49.0152 26.0135L50.0129 26.08ZM49.2449 21.52L48.3822 22.0257L48.3926 22.0435L48.4038 22.0608L49.2449 21.52ZM46.8929 19.408L46.4457 20.3024L46.457 20.3081L46.4685 20.3135L46.8929 19.408ZM39.5489 19.696L38.9942 18.8639L38.9883 18.8679L38.9824 18.872L39.5489 19.696ZM38.7809 26.512L37.8811 26.9483L37.8865 26.9592L38.7809 26.512ZM40.7489 29.584L39.9609 30.1996L39.9668 30.2072L39.9728 30.2146L40.7489 29.584ZM43.3409 32.704L42.5784 33.351L42.589 33.3634L42.6 33.3755L43.3409 32.704ZM45.9329 35.872L45.1273 36.4644L45.1371 36.4778L45.1474 36.4909L45.9329 35.872ZM47.9489 39.232L47.0311 39.6289H47.0311L47.9489 39.232ZM47.3249 47.488L48.12 48.0947L48.1274 48.0847L47.3249 47.488ZM43.7729 50.464L44.2435 51.3464H44.2435L43.7729 50.464ZM39.2129 52.144L38.9981 51.1674L39.2129 52.144ZM30.6689 52.432L30.5191 53.4207L30.6689 52.432ZM27.9329 51.712L27.5163 52.6211L27.5322 52.6283L27.5483 52.6351L27.9329 51.712ZM25.4369 50.464L24.9224 51.3215L24.9433 51.334L24.9647 51.3455L25.4369 50.464ZM24.5249 49.984L24.0393 50.8582L24.0782 50.8798L24.1188 50.8978L24.5249 49.984ZM22.7969 50.272L21.9882 49.6838H21.9882L22.7969 50.272ZM21.7409 52.336V53.336H22.395L22.6571 52.7368L21.7409 52.336ZM20.7809 52.336L19.8554 51.9574L19.2914 53.336H20.7809V52.336ZM21.6929 49.888L20.7476 49.562L21.6929 49.888ZM22.7489 46.336L23.7152 46.5937L23.7166 46.5884L22.7489 46.336ZM24.0449 40.816V39.816H23.239L23.0678 40.6036L24.0449 40.816ZM25.0049 40.816L25.9536 41.1322L26.3924 39.816H25.0049V40.816ZM24.6209 42.64L23.6293 42.5107L23.6268 42.53L23.625 42.5495L24.6209 42.64ZM24.5729 44.56L25.5721 44.5189L25.5718 44.5117L25.5714 44.5045L24.5729 44.56ZM26.7809 49.84L26.1286 50.5981L26.139 50.6068L26.7809 49.84ZM36.8609 50.32L36.1135 49.6556L36.1119 49.6574L36.8609 50.32ZM37.2929 43.408L36.3577 43.7619L36.3635 43.7774L36.3699 43.7926L37.2929 43.408ZM35.5169 40.096L34.6965 40.6678L34.7007 40.6737L34.7049 40.6796L35.5169 40.096ZM33.1649 37.024L32.3769 37.6396L32.3876 37.6533L32.3987 37.6666L33.1649 37.024ZM29.0369 30.736L28.1049 31.0984L28.1111 31.1143L28.1178 31.1299L29.0369 30.736ZM29.5169 22.72L28.6815 22.1704L28.6764 22.1781L28.6714 22.186L29.5169 22.72ZM32.6369 19.696L32.1069 18.848H32.1069L32.6369 19.696ZM46.4129 18.208L46.019 19.1271L46.0283 19.1311L46.0377 19.1349L46.4129 18.208ZM49.4849 19.552L49.9322 18.6576L49.4849 19.552ZM52.6529 17.68V16.68H51.9491L51.7116 17.3425L52.6529 17.68ZM52.6796 17.321C52.3524 18.1717 51.9154 19.4025 51.3702 21.0061L53.2637 21.6499C53.8065 20.0535 54.2335 18.8523 54.5463 18.039L52.6796 17.321ZM51.3722 21.0002C50.806 22.6321 50.2832 24.7325 49.7985 27.2855L51.7634 27.6585C52.2387 25.1555 52.7399 23.1599 53.2617 21.6558L51.3722 21.0002ZM50.7809 26.472H49.8209V28.472H50.7809V26.472ZM50.7987 27.6815C50.9053 27.1841 50.9757 26.6722 51.0107 26.1465L49.0152 26.0135C48.9862 26.4478 48.9285 26.8639 48.8431 27.2625L50.7987 27.6815ZM51.0042 26.2122C51.072 25.7034 51.1089 25.2411 51.1089 24.832H49.1089C49.1089 25.1269 49.0819 25.4966 49.0217 25.9478L51.0042 26.2122ZM51.1089 24.832C51.1089 23.3728 50.7875 22.0703 50.0861 20.9792L48.4038 22.0608C48.8544 22.7617 49.1089 23.6672 49.1089 24.832H51.1089ZM50.1076 21.0143C49.4559 19.9025 48.5146 19.0637 47.3174 18.5025L46.4685 20.3135C47.3193 20.7123 47.946 21.2815 48.3822 22.0257L50.1076 21.0143ZM47.3402 18.5136C46.1462 17.9166 44.7532 17.64 43.1969 17.64V19.64C44.5207 19.64 45.5917 19.8754 46.4457 20.3024L47.3402 18.5136ZM43.1969 17.64C41.6409 17.64 40.2284 18.0412 38.9942 18.8639L40.1036 20.528C40.9815 19.9428 42.001 19.64 43.1969 19.64V17.64ZM38.9824 18.872C37.5944 19.8262 37.0129 21.4019 37.0129 23.296H39.0129C39.0129 21.7981 39.4555 20.9738 40.1155 20.52L38.9824 18.872ZM37.0129 23.296C37.0129 24.5468 37.3085 25.7672 37.8811 26.9483L39.6808 26.0757C39.2294 25.1448 39.0129 24.2212 39.0129 23.296H37.0129ZM37.8865 26.9592C38.432 28.0501 39.1253 29.1301 39.9609 30.1996L41.537 28.9684C40.7726 27.9899 40.1539 27.0219 39.6754 26.0648L37.8865 26.9592ZM39.9728 30.2146C40.8095 31.2444 41.6781 32.2898 42.5784 33.351L44.1034 32.057C43.2118 31.0062 42.3524 29.9716 41.5251 28.9534L39.9728 30.2146ZM42.6 33.3755C43.5056 34.3748 44.3479 35.4045 45.1273 36.4644L46.7386 35.2796C45.9179 34.1635 45.0323 33.0812 44.0819 32.0325L42.6 33.3755ZM45.1474 36.4909C45.9282 37.4818 46.5548 38.5276 47.0311 39.6289L48.8668 38.8351C48.319 37.5684 47.6017 36.3742 46.7184 35.2531L45.1474 36.4909ZM47.0311 39.6289C47.488 40.6854 47.7169 41.7981 47.7169 42.976H49.7169C49.7169 41.5299 49.4339 40.1466 48.8668 38.8351L47.0311 39.6289ZM47.7169 42.976C47.7169 44.5506 47.3056 45.8381 46.5225 46.8913L48.1274 48.0847C49.2003 46.6419 49.7169 44.9214 49.7169 42.976H47.7169ZM46.53 46.8813C45.6948 47.9757 44.6243 48.8766 43.3024 49.5816L44.2435 51.3464C45.8016 50.5154 47.0991 49.4323 48.1199 48.0947L46.53 46.8813ZM43.3024 49.5816C41.9432 50.3065 40.5093 50.8349 38.9981 51.1674L39.4278 53.1206C41.1166 52.7491 42.7227 52.1575 44.2435 51.3464L43.3024 49.5816ZM38.9981 51.1674C37.4557 51.5067 36.0406 51.672 34.7489 51.672V53.672C36.2093 53.672 37.7702 53.4853 39.4278 53.1206L38.9981 51.1674ZM34.7489 51.672C33.1107 51.672 31.8058 51.5928 30.8187 51.4433L30.5191 53.4207C31.6441 53.5912 33.0592 53.672 34.7489 53.672V51.672ZM30.8187 51.4433C29.8219 51.2922 28.9925 51.0702 28.3176 50.7889L27.5483 52.6351C28.4094 52.9938 29.404 53.2518 30.5191 53.4207L30.8187 51.4433ZM28.3496 50.8029C27.6037 50.4611 26.7904 50.0546 25.9092 49.5825L24.9647 51.3455C25.8754 51.8334 26.7262 52.2589 27.5163 52.6211L28.3496 50.8029ZM25.9514 49.6065C25.6027 49.3972 25.2623 49.2174 24.9311 49.0702L24.1188 50.8978C24.3635 51.0066 24.6312 51.1468 24.9224 51.3215L25.9514 49.6065ZM25.0106 49.1098C24.6669 48.9189 24.2484 48.744 23.8049 48.744V50.744C23.7655 50.744 23.7642 50.7365 23.8127 50.7527C23.8596 50.7683 23.9341 50.7997 24.0393 50.8582L25.0106 49.1098ZM23.8049 48.744C23.052 48.744 22.4221 49.0872 21.9882 49.6838L23.6057 50.8602C23.6566 50.7902 23.692 50.7686 23.7049 50.7618C23.7163 50.7559 23.7426 50.744 23.8049 50.744V48.744ZM21.9882 49.6838C21.6604 50.1346 21.2705 50.9165 20.8248 51.9352L22.6571 52.7368C23.1074 51.7075 23.4215 51.1134 23.6057 50.8602L21.9882 49.6838ZM21.7409 51.336H20.7809V53.336H21.7409V51.336ZM21.7065 52.7146C22.0033 51.9891 22.3138 51.1549 22.6383 50.214L20.7476 49.562C20.432 50.4771 20.1346 51.2749 19.8554 51.9574L21.7065 52.7146ZM22.6383 50.214C22.9689 49.2551 23.3278 48.0462 23.7152 46.5937L21.7827 46.0783C21.4021 47.5058 21.0569 48.6649 20.7476 49.562L22.6383 50.214ZM23.7166 46.5884C24.1052 45.0985 24.5405 43.2441 25.0221 41.0284L23.0678 40.6036C22.5894 42.8039 22.1606 44.6295 21.7813 46.0836L23.7166 46.5884ZM24.0449 41.816H25.0049V39.816H24.0449V41.816ZM24.0563 40.4998C23.869 41.0615 23.7302 41.7376 23.6293 42.5107L25.6125 42.7693C25.7037 42.0704 25.8209 41.5305 25.9536 41.1322L24.0563 40.4998ZM23.625 42.5495C23.5576 43.2916 23.5393 43.9814 23.5745 44.6155L25.5714 44.5045C25.5426 43.9866 25.5563 43.3964 25.6168 42.7305L23.625 42.5495ZM23.5738 44.6011C23.6777 47.1296 24.4864 49.1849 26.1287 50.598L27.4332 49.082C26.3234 48.1271 25.6602 46.6624 25.5721 44.5189L23.5738 44.6011ZM26.139 50.6068C27.7456 51.9518 29.87 52.568 32.3969 52.568V50.568C30.1879 50.568 28.5683 50.0322 27.4229 49.0732L26.139 50.6068ZM32.3969 52.568C34.6671 52.568 36.5631 52.166 37.6099 50.9826L36.1119 49.6574C35.6868 50.138 34.6067 50.568 32.3969 50.568V52.568ZM37.6083 50.9844C38.5526 49.9221 39.0129 48.6238 39.0129 47.152H37.0129C37.0129 48.1762 36.7053 48.9899 36.1135 49.6556L37.6083 50.9844ZM39.0129 47.152C39.0129 45.6862 38.7506 44.3064 38.216 43.0234L36.3699 43.7926C36.7953 44.8136 37.0129 45.9298 37.0129 47.152H39.0129ZM38.2282 43.0541C37.7495 41.7888 37.1161 40.6075 36.329 39.5124L34.7049 40.6796C35.3898 41.6325 35.9404 42.6592 36.3577 43.7619L38.2282 43.0541ZM36.3373 39.5242C35.5842 38.4437 34.7821 37.396 33.9311 36.3814L32.3987 37.6666C33.2117 38.636 33.9776 39.6363 34.6965 40.6678L36.3373 39.5242ZM33.953 36.4084C33.1609 35.3945 32.4009 34.3812 31.673 33.3684L30.0489 34.5356C30.7929 35.5708 31.569 36.6055 32.3769 37.6396L33.953 36.4084ZM31.673 33.3684C30.978 32.4014 30.4064 31.3928 29.9561 30.3421L28.1178 31.1299C28.6275 32.3192 29.2719 33.4546 30.0489 34.5356L31.673 33.3684ZM29.9689 30.3736C29.5675 29.3412 29.3649 28.2485 29.3649 27.088H27.3649C27.3649 28.4875 27.6104 29.8268 28.1049 31.0984L29.9689 30.3736ZM29.3649 27.088C29.3649 25.5466 29.7123 24.2834 30.3624 23.254L28.6714 22.186C27.7856 23.5886 27.3649 25.2374 27.3649 27.088H29.3649ZM30.3524 23.2696C31.0703 22.1784 32.0044 21.2706 33.1669 20.544L32.1069 18.848C30.7095 19.7214 29.5636 20.8296 28.6815 22.1704L30.3524 23.2696ZM33.1669 20.544C34.3603 19.7981 35.6426 19.2462 37.0174 18.8876L36.5125 16.9524C34.9432 17.3618 33.4736 17.9939 32.1069 18.848L33.1669 20.544ZM37.0174 18.8876C38.4176 18.5223 39.7405 18.344 40.9889 18.344V16.344C39.5494 16.344 38.0563 16.5497 36.5125 16.9524L37.0174 18.8876ZM40.9889 18.344C43.1926 18.344 44.8491 18.6257 46.019 19.1271L46.8069 17.2889C45.2888 16.6382 43.3293 16.344 40.9889 16.344V18.344ZM46.0377 19.1349C47.374 19.6758 48.3692 20.1122 49.0377 20.4464L49.9322 18.6576C49.1927 18.2878 48.1399 17.8282 46.7881 17.281L46.0377 19.1349ZM49.0377 20.4464C49.0382 20.4467 49.0387 20.4469 49.0392 20.4472C49.0397 20.4474 49.0402 20.4477 49.0407 20.4479C49.0412 20.4482 49.0417 20.4484 49.0422 20.4487C49.0427 20.4489 49.0432 20.4492 49.0437 20.4494C49.0442 20.4497 49.0447 20.4499 49.0452 20.4502C49.0457 20.4504 49.0462 20.4507 49.0467 20.4509C49.0472 20.4512 49.0477 20.4514 49.0482 20.4517C49.0487 20.4519 49.0492 20.4522 49.0497 20.4524C49.0503 20.4527 49.0508 20.4529 49.0513 20.4532C49.0518 20.4534 49.0523 20.4537 49.0528 20.4539C49.0533 20.4542 49.0538 20.4544 49.0543 20.4547C49.0548 20.4549 49.0553 20.4552 49.0558 20.4555C49.0563 20.4557 49.0568 20.456 49.0573 20.4562C49.0578 20.4565 49.0583 20.4567 49.0588 20.457C49.0593 20.4572 49.0598 20.4575 49.0603 20.4577C49.0608 20.458 49.0613 20.4582 49.0618 20.4585C49.0623 20.4587 49.0628 20.459 49.0633 20.4592C49.0638 20.4595 49.0643 20.4597 49.0648 20.46C49.0653 20.4602 49.0659 20.4605 49.0664 20.4607C49.0669 20.461 49.0674 20.4612 49.0679 20.4615C49.0684 20.4618 49.0689 20.462 49.0694 20.4623C49.0699 20.4625 49.0704 20.4628 49.0709 20.463C49.0714 20.4633 49.0719 20.4635 49.0724 20.4638C49.0729 20.464 49.0734 20.4643 49.0739 20.4645C49.0744 20.4648 49.0749 20.465 49.0755 20.4653C49.076 20.4655 49.0765 20.4658 49.077 20.466C49.0775 20.4663 49.078 20.4666 49.0785 20.4668C49.079 20.4671 49.0795 20.4673 49.08 20.4676C49.0805 20.4678 49.081 20.4681 49.0815 20.4683C49.082 20.4686 49.0825 20.4688 49.0831 20.4691C49.0836 20.4693 49.0841 20.4696 49.0846 20.4699C49.0851 20.4701 49.0856 20.4704 49.0861 20.4706C49.0866 20.4709 49.0871 20.4711 49.0876 20.4714C49.0881 20.4716 49.0886 20.4719 49.0891 20.4721C49.0897 20.4724 49.0902 20.4726 49.0907 20.4729C49.0912 20.4732 49.0917 20.4734 49.0922 20.4737C49.0927 20.4739 49.0932 20.4742 49.0937 20.4744C49.0942 20.4747 49.0947 20.4749 49.0953 20.4752C49.0958 20.4754 49.0963 20.4757 49.0968 20.476C49.0973 20.4762 49.0978 20.4765 49.0983 20.4767C49.0988 20.477 49.0993 20.4772 49.0998 20.4775C49.1004 20.4777 49.1009 20.478 49.1014 20.4782C49.1019 20.4785 49.1024 20.4788 49.1029 20.479C49.1034 20.4793 49.1039 20.4795 49.1044 20.4798C49.1049 20.48 49.1055 20.4803 49.106 20.4805C49.1065 20.4808 49.107 20.4811 49.1075 20.4813C49.108 20.4816 49.1085 20.4818 49.109 20.4821C49.1095 20.4823 49.1101 20.4826 49.1106 20.4828C49.1111 20.4831 49.1116 20.4834 49.1121 20.4836C49.1126 20.4839 49.1131 20.4841 49.1136 20.4844C49.1142 20.4846 49.1147 20.4849 49.1152 20.4852C49.1157 20.4854 49.1162 20.4857 49.1167 20.4859C49.1172 20.4862 49.1177 20.4864 49.1183 20.4867C49.1188 20.4869 49.1193 20.4872 49.1198 20.4875C49.1203 20.4877 49.1208 20.488 49.1213 20.4882C49.1218 20.4885 49.1224 20.4887 49.1229 20.489C49.1234 20.4893 49.1239 20.4895 49.1244 20.4898C49.1249 20.49 49.1254 20.4903 49.126 20.4905C49.1265 20.4908 49.127 20.4911 49.1275 20.4913C49.128 20.4916 49.1285 20.4918 49.129 20.4921C49.1296 20.4923 49.1301 20.4926 49.1306 20.4929C49.1311 20.4931 49.1316 20.4934 49.1321 20.4936C49.1326 20.4939 49.1332 20.4941 49.1337 20.4944C49.1342 20.4947 49.1347 20.4949 49.1352 20.4952C49.1357 20.4954 49.1363 20.4957 49.1368 20.4959C49.1373 20.4962 49.1378 20.4965 49.1383 20.4967C49.1388 20.497 49.1394 20.4972 49.1399 20.4975C49.1404 20.4978 49.1409 20.498 49.1414 20.4983C49.1419 20.4985 49.1425 20.4988 49.143 20.499C49.1435 20.4993 49.144 20.4996 49.1445 20.4998C49.145 20.5001 49.1456 20.5003 49.1461 20.5006C49.1466 20.5009 49.1471 20.5011 49.1476 20.5014C49.1481 20.5016 49.1487 20.5019 49.1492 20.5021C49.1497 20.5024 49.1502 20.5027 49.1507 20.5029C49.1512 20.5032 49.1518 20.5034 49.1523 20.5037C49.1528 20.504 49.1533 20.5042 49.1538 20.5045C49.1544 20.5047 49.1549 20.505 49.1554 20.5053C49.1559 20.5055 49.1564 20.5058 49.157 20.506C49.1575 20.5063 49.158 20.5066 49.1585 20.5068C49.159 20.5071 49.1595 20.5073 49.1601 20.5076C49.1606 20.5079 49.1611 20.5081 49.1616 20.5084C49.1621 20.5086 49.1627 20.5089 49.1632 20.5092C49.1637 20.5094 49.1642 20.5097 49.1647 20.5099C49.1653 20.5102 49.1658 20.5105 49.1663 20.5107C49.1668 20.511 49.1674 20.5112 49.1679 20.5115C49.1684 20.5118 49.1689 20.512 49.1694 20.5123C49.17 20.5125 49.1705 20.5128 49.171 20.5131C49.1715 20.5133 49.172 20.5136 49.1726 20.5138C49.1731 20.5141 49.1736 20.5144 49.1741 20.5146C49.1746 20.5149 49.1752 20.5151 49.1757 20.5154C49.1762 20.5157 49.1767 20.5159 49.1773 20.5162C49.1778 20.5165 49.1783 20.5167 49.1788 20.517C49.1793 20.5172 49.1799 20.5175 49.1804 20.5178C49.1809 20.518 49.1814 20.5183 49.182 20.5185C49.1825 20.5188 49.183 20.5191 49.1835 20.5193C49.1841 20.5196 49.1846 20.5198 49.1851 20.5201C49.1856 20.5204 49.1861 20.5206 49.1867 20.5209C49.1872 20.5212 49.1877 20.5214 49.1882 20.5217C49.1888 20.5219 49.1893 20.5222 49.1898 20.5225C49.1903 20.5227 49.1909 20.523 49.1914 20.5233C49.1919 20.5235 49.1924 20.5238 49.193 20.524C49.1935 20.5243 49.194 20.5246 49.1945 20.5248C49.1951 20.5251 49.1956 20.5254 49.1961 20.5256C49.1966 20.5259 49.1972 20.5261 49.1977 20.5264C49.1982 20.5267 49.1987 20.5269 49.1993 20.5272C49.1998 20.5275 49.2003 20.5277 49.2008 20.528C49.2014 20.5282 49.2019 20.5285 49.2024 20.5288C49.2029 20.529 49.2035 20.5293 49.204 20.5296C49.2045 20.5298 49.205 20.5301 49.2056 20.5303C49.2061 20.5306 49.2066 20.5309 49.2072 20.5311C49.2077 20.5314 49.2082 20.5317 49.2087 20.5319C49.2093 20.5322 49.2098 20.5325 49.2103 20.5327C49.2108 20.533 49.2114 20.5332 49.2119 20.5335C49.2124 20.5338 49.213 20.534 49.2135 20.5343C49.214 20.5346 49.2145 20.5348 49.2151 20.5351C49.2156 20.5354 49.2161 20.5356 49.2167 20.5359C49.2172 20.5362 49.2177 20.5364 49.2182 20.5367C49.2188 20.5369 49.2193 20.5372 49.2198 20.5375C49.2204 20.5377 49.2209 20.538 49.2214 20.5383C49.2219 20.5385 49.2225 20.5388 49.223 20.5391C49.2235 20.5393 49.2241 20.5396 49.2246 20.5399C49.2251 20.5401 49.2256 20.5404 49.2262 20.5406C49.2267 20.5409 49.2272 20.5412 49.2278 20.5414C49.2283 20.5417 49.2288 20.542 49.2294 20.5422C49.2299 20.5425 49.2304 20.5428 49.2309 20.543C49.2315 20.5433 49.232 20.5436 49.2325 20.5438C49.2331 20.5441 49.2336 20.5444 49.2341 20.5446C49.2347 20.5449 49.2352 20.5452 49.2357 20.5454C49.2363 20.5457 49.2368 20.546 49.2373 20.5462C49.2379 20.5465 49.2384 20.5468 49.2389 20.547C49.2394 20.5473 49.24 20.5476 49.2405 20.5478C49.241 20.5481 49.2416 20.5483 49.2421 20.5486C49.2426 20.5489 49.2432 20.5491 49.2437 20.5494C49.2442 20.5497 49.2448 20.5499 49.2453 20.5502C49.2458 20.5505 49.2464 20.5507 49.2469 20.551C49.2474 20.5513 49.248 20.5515 49.2485 20.5518C49.249 20.5521 49.2496 20.5523 49.2501 20.5526C49.2506 20.5529 49.2512 20.5531 49.2517 20.5534C49.2522 20.5537 49.2528 20.5539 49.2533 20.5542C49.2538 20.5545 49.2544 20.5547 49.2549 20.555C49.2554 20.5553 49.256 20.5555 49.2565 20.5558C49.257 20.5561 49.2576 20.5563 49.2581 20.5566C49.2586 20.5569 49.2592 20.5572 49.2597 20.5574C49.2602 20.5577 49.2608 20.558 49.2613 20.5582C49.2619 20.5585 49.2624 20.5588 49.2629 20.559C49.2635 20.5593 49.264 20.5596 49.2645 20.5598C49.2651 20.5601 49.2656 20.5604 49.2661 20.5606C49.2667 20.5609 49.2672 20.5612 49.2677 20.5614C49.2683 20.5617 49.2688 20.562 49.2694 20.5622C49.2699 20.5625 49.2704 20.5628 49.271 20.563C49.2715 20.5633 49.272 20.5636 49.2726 20.5639C49.2731 20.5641 49.2736 20.5644 49.2742 20.5647C49.2747 20.5649 49.2753 20.5652 49.2758 20.5655C49.2763 20.5657 49.2769 20.566 49.2774 20.5663C49.2779 20.5665 49.2785 20.5668 49.279 20.5671C49.2796 20.5673 49.2801 20.5676 49.2806 20.5679C49.2812 20.5681 49.2817 20.5684 49.2823 20.5687C49.2828 20.569 49.2833 20.5692 49.2839 20.5695C49.2844 20.5698 49.2849 20.57 49.2855 20.5703C49.286 20.5706 49.2866 20.5708 49.2871 20.5711C49.2876 20.5714 49.2882 20.5717 49.2887 20.5719C49.2893 20.5722 49.2898 20.5725 49.2903 20.5727C49.2909 20.573 49.2914 20.5733 49.292 20.5735C49.2925 20.5738 49.293 20.5741 49.2936 20.5743C49.2941 20.5746 49.2947 20.5749 49.2952 20.5752C49.2957 20.5754 49.2963 20.5757 49.2968 20.576C49.2974 20.5762 49.2979 20.5765 49.2984 20.5768C49.299 20.5771 49.2995 20.5773 49.3001 20.5776C49.3006 20.5779 49.3011 20.5781 49.3017 20.5784C49.3022 20.5787 49.3028 20.5789 49.3033 20.5792C49.3039 20.5795 49.3044 20.5798 49.3049 20.58C49.3055 20.5803 49.306 20.5806 49.3066 20.5808C49.3071 20.5811 49.3076 20.5814 49.3082 20.5817C49.3087 20.5819 49.3093 20.5822 49.3098 20.5825C49.3104 20.5827 49.3109 20.583 49.3114 20.5833C49.312 20.5836 49.3125 20.5838 49.3131 20.5841C49.3136 20.5844 49.3142 20.5846 49.3147 20.5849C49.3152 20.5852 49.3158 20.5855 49.3163 20.5857C49.3169 20.586 49.3174 20.5863 49.318 20.5865C49.3185 20.5868 49.319 20.5871 49.3196 20.5874C49.3201 20.5876 49.3207 20.5879 49.3212 20.5882C49.3218 20.5884 49.3223 20.5887 49.3229 20.589C49.3234 20.5893 49.3239 20.5895 49.3245 20.5898C49.325 20.5901 49.3256 20.5904 49.3261 20.5906C49.3267 20.5909 49.3272 20.5912 49.3278 20.5914C49.3283 20.5917 49.3288 20.592 49.3294 20.5923C49.3299 20.5925 49.3305 20.5928 49.331 20.5931C49.3316 20.5934 49.3321 20.5936 49.3327 20.5939C49.3332 20.5942 49.3338 20.5944 49.3343 20.5947C49.3349 20.595 49.3354 20.5953 49.3359 20.5955C49.3365 20.5958 49.337 20.5961 49.3376 20.5964C49.3381 20.5966 49.3387 20.5969 49.3392 20.5972C49.3398 20.5974 49.3403 20.5977 49.3409 20.598C49.3414 20.5983 49.342 20.5985 49.3425 20.5988C49.3431 20.5991 49.3436 20.5994 49.3442 20.5996C49.3447 20.5999 49.3452 20.6002 49.3458 20.6005C49.3463 20.6007 49.3469 20.601 49.3474 20.6013C49.348 20.6016 49.3485 20.6018 49.3491 20.6021C49.3496 20.6024 49.3502 20.6027 49.3507 20.6029C49.3513 20.6032 49.3518 20.6035 49.3524 20.6037C49.3529 20.604 49.3535 20.6043 49.354 20.6046C49.3546 20.6048 49.3551 20.6051 49.3557 20.6054C49.3562 20.6057 49.3568 20.6059 49.3573 20.6062C49.3579 20.6065 49.3584 20.6068 49.359 20.607C49.3595 20.6073 49.3601 20.6076 49.3606 20.6079C49.3612 20.6081 49.3617 20.6084 49.3623 20.6087C49.3628 20.609 49.3634 20.6092 49.3639 20.6095C49.3645 20.6098 49.365 20.6101 49.3656 20.6103C49.3661 20.6106 49.3667 20.6109 49.3672 20.6112C49.3678 20.6114 49.3683 20.6117 49.3689 20.612C49.3694 20.6123 49.37 20.6126 49.3705 20.6128C49.3711 20.6131 49.3716 20.6134 49.3722 20.6137C49.3727 20.6139 49.3733 20.6142 49.3738 20.6145C49.3744 20.6148 49.3749 20.615 49.3755 20.6153C49.376 20.6156 49.3766 20.6159 49.3772 20.6161C49.3777 20.6164 49.3783 20.6167 49.3788 20.617C49.3794 20.6172 49.3799 20.6175 49.3805 20.6178C49.381 20.6181 49.3816 20.6183 49.3821 20.6186C49.3827 20.6189 49.3832 20.6192 49.3838 20.6195C49.3843 20.6197 49.3849 20.62 49.3855 20.6203C49.386 20.6206 49.3866 20.6208 49.3871 20.6211C49.3877 20.6214 49.3882 20.6217 49.3888 20.6219C49.3893 20.6222 49.3899 20.6225 49.3904 20.6228C49.391 20.6231 49.3915 20.6233 49.3921 20.6236C49.3927 20.6239 49.3932 20.6242 49.3938 20.6244C49.3943 20.6247 49.3949 20.625 49.3954 20.6253C49.396 20.6256 49.3965 20.6258 49.3971 20.6261C49.3977 20.6264 49.3982 20.6267 49.3988 20.6269C49.3993 20.6272 49.3999 20.6275 49.4004 20.6278C49.401 20.6281 49.4015 20.6283 49.4021 20.6286C49.4027 20.6289 49.4032 20.6292 49.4038 20.6294C49.4043 20.6297 49.4049 20.63 49.4054 20.6303C49.406 20.6306 49.4065 20.6308 49.4071 20.6311C49.4077 20.6314 49.4082 20.6317 49.4088 20.632C49.4093 20.6322 49.4099 20.6325 49.4104 20.6328C49.411 20.6331 49.4116 20.6333 49.4121 20.6336C49.4127 20.6339 49.4132 20.6342 49.4138 20.6345C49.4144 20.6347 49.4149 20.635 49.4155 20.6353C49.416 20.6356 49.4166 20.6359 49.4171 20.6361C49.4177 20.6364 49.4183 20.6367 49.4188 20.637C49.4194 20.6373 49.4199 20.6375 49.4205 20.6378C49.4211 20.6381 49.4216 20.6384 49.4222 20.6386C49.4227 20.6389 49.4233 20.6392 49.4238 20.6395C49.4244 20.6398 49.425 20.64 49.4255 20.6403C49.4261 20.6406 49.4266 20.6409 49.4272 20.6412C49.4278 20.6414 49.4283 20.6417 49.4289 20.642C49.4294 20.6423 49.43 20.6426 49.4306 20.6428C49.4311 20.6431 49.4317 20.6434 49.4322 20.6437C49.4328 20.644 49.4334 20.6442 49.4339 20.6445C49.4345 20.6448 49.4351 20.6451 49.4356 20.6454C49.4362 20.6456 49.4367 20.6459 49.4373 20.6462C49.4379 20.6465 49.4384 20.6468 49.439 20.6471C49.4395 20.6473 49.4401 20.6476 49.4407 20.6479C49.4412 20.6482 49.4418 20.6485 49.4424 20.6487C49.4429 20.649 49.4435 20.6493 49.444 20.6496C49.4446 20.6499 49.4452 20.6501 49.4457 20.6504C49.4463 20.6507 49.4468 20.651 49.4474 20.6513C49.448 20.6516 49.4485 20.6518 49.4491 20.6521C49.4497 20.6524 49.4502 20.6527 49.4508 20.653C49.4514 20.6532 49.4519 20.6535 49.4525 20.6538C49.453 20.6541 49.4536 20.6544 49.4542 20.6546C49.4547 20.6549 49.4553 20.6552 49.4559 20.6555C49.4564 20.6558 49.457 20.6561 49.4576 20.6563C49.4581 20.6566 49.4587 20.6569 49.4592 20.6572C49.4598 20.6575 49.4604 20.6578 49.4609 20.658C49.4615 20.6583 49.4621 20.6586 49.4626 20.6589C49.4632 20.6592 49.4638 20.6594 49.4643 20.6597C49.4649 20.66 49.4655 20.6603 49.466 20.6606C49.4666 20.6609 49.4672 20.6611 49.4677 20.6614C49.4683 20.6617 49.4689 20.662 49.4694 20.6623C49.47 20.6626 49.4706 20.6628 49.4711 20.6631C49.4717 20.6634 49.4723 20.6637 49.4728 20.664C49.4734 20.6643 49.474 20.6645 49.4745 20.6648C49.4751 20.6651 49.4757 20.6654 49.4762 20.6657C49.4768 20.666 49.4774 20.6662 49.4779 20.6665C49.4785 20.6668 49.4791 20.6671 49.4796 20.6674C49.4802 20.6677 49.4808 20.6679 49.4813 20.6682C49.4819 20.6685 49.4825 20.6688 49.483 20.6691C49.4836 20.6694 49.4842 20.6696 49.4847 20.6699C49.4853 20.6702 49.4859 20.6705 49.4864 20.6708C49.487 20.6711 49.4876 20.6713 49.4881 20.6716C49.4887 20.6719 49.4893 20.6722 49.4898 20.6725C49.4904 20.6728 49.491 20.6731 49.4916 20.6733C49.4921 20.6736 49.4927 20.6739 49.4933 20.6742C49.4938 20.6745 49.4944 20.6748 49.495 20.675C49.4955 20.6753 49.4961 20.6756 49.4967 20.6759C49.4972 20.6762 49.4978 20.6765 49.4984 20.6768C49.499 20.677 49.4995 20.6773 49.5001 20.6776C49.5007 20.6779 49.5012 20.6782 49.5018 20.6785C49.5024 20.6788 49.503 20.679 49.5035 20.6793C49.5041 20.6796 49.5047 20.6799 49.5052 20.6802C49.5058 20.6805 49.5064 20.6808 49.507 20.681C49.5075 20.6813 49.5081 20.6816 49.5087 20.6819C49.5092 20.6822 49.5098 20.6825 49.5104 20.6828C49.511 20.683 49.5115 20.6833 49.5121 20.6836C49.5127 20.6839 49.5132 20.6842 49.5138 20.6845C49.5144 20.6848 49.515 20.685 49.5155 20.6853C49.5161 20.6856 49.5167 20.6859 49.5172 20.6862C49.5178 20.6865 49.5184 20.6868 49.519 20.687C49.5195 20.6873 49.5201 20.6876 49.5207 20.6879C49.5213 20.6882 49.5218 20.6885 49.5224 20.6888C49.523 20.6891 49.5236 20.6893 49.5241 20.6896C49.5247 20.6899 49.5253 20.6902 49.5258 20.6905C49.5264 20.6908 49.527 20.6911 49.5276 20.6913C49.5281 20.6916 49.5287 20.6919 49.5293 20.6922C49.5299 20.6925 49.5304 20.6928 49.531 20.6931C49.5316 20.6934 49.5322 20.6936 49.5327 20.6939C49.5333 20.6942 49.5339 20.6945 49.5345 20.6948C49.535 20.6951 49.5356 20.6954 49.5362 20.6957C49.5368 20.6959 49.5373 20.6962 49.5379 20.6965C49.5385 20.6968 49.5391 20.6971 49.5396 20.6974C49.5402 20.6977 49.5408 20.698 49.5414 20.6982C49.542 20.6985 49.5425 20.6988 49.5431 20.6991C49.5437 20.6994 49.5443 20.6997 49.5448 20.7C49.5454 20.7003 49.546 20.7006 49.5466 20.7008C49.5471 20.7011 49.5477 20.7014 49.5483 20.7017C49.5489 20.702 49.5494 20.7023 49.55 20.7026C49.5506 20.7029 49.5512 20.7032 49.5518 20.7034C49.5523 20.7037 49.5529 20.704 49.5535 20.7043C49.5541 20.7046 49.5546 20.7049 49.5552 20.7052C49.5558 20.7055 49.5564 20.7058 49.557 20.706C49.5575 20.7063 49.5581 20.7066 49.5587 20.7069C49.5593 20.7072 49.5599 20.7075 49.5604 20.7078C49.561 20.7081 49.5616 20.7084 49.5622 20.7086C49.5627 20.7089 49.5633 20.7092 49.5639 20.7095C49.5645 20.7098 49.5651 20.7101 49.5656 20.7104C49.5662 20.7107 49.5668 20.711 49.5674 20.7113C49.568 20.7115 49.5685 20.7118 49.5691 20.7121C49.5697 20.7124 49.5703 20.7127 49.5709 20.713C49.5714 20.7133 49.572 20.7136 49.5726 20.7139C49.5732 20.7142 49.5738 20.7144 49.5743 20.7147C49.5749 20.715 49.5755 20.7153 49.5761 20.7156C49.5767 20.7159 49.5773 20.7162 49.5778 20.7165C49.5784 20.7168 49.579 20.7171 49.5796 20.7174C49.5802 20.7176 49.5807 20.7179 49.5813 20.7182C49.5819 20.7185 49.5825 20.7188 49.5831 20.7191C49.5837 20.7194 49.5842 20.7197 49.5848 20.72C49.5854 20.7203 49.586 20.7206 49.5866 20.7208C49.5871 20.7211 49.5877 20.7214 49.5883 20.7217C49.5889 20.722 49.5895 20.7223 49.5901 20.7226C49.5906 20.7229 49.5912 20.7232 49.5918 20.7235C49.5924 20.7238 49.593 20.7241 49.5936 20.7243C49.5941 20.7246 49.5947 20.7249 49.5953 20.7252C49.5959 20.7255 49.5965 20.7258 49.5971 20.7261C49.5976 20.7264 49.5982 20.7267 49.5988 20.727C49.5994 20.7273 49.6 20.7276 49.6006 20.7278C49.6012 20.7281 49.6017 20.7284 49.6023 20.7287C49.6029 20.729 49.6035 20.7293 49.6041 20.7296C49.6047 20.7299 49.6052 20.7302 49.6058 20.7305C49.6064 20.7308 49.607 20.7311 49.6076 20.7314C49.6082 20.7316 49.6088 20.7319 49.6093 20.7322C49.6099 20.7325 49.6105 20.7328 49.6111 20.7331C49.6117 20.7334 49.6123 20.7337 49.6129 20.734C49.6134 20.7343 49.614 20.7346 49.6146 20.7349C49.6152 20.7352 49.6158 20.7355 49.6164 20.7358C49.617 20.736 49.6175 20.7363 49.6181 20.7366C49.6187 20.7369 49.6193 20.7372 49.6199 20.7375C49.6205 20.7378 49.6211 20.7381 49.6217 20.7384C49.6222 20.7387 49.6228 20.739 49.6234 20.7393C49.624 20.7396 49.6246 20.7399 49.6252 20.7402C49.6258 20.7404 49.6264 20.7407 49.627 20.741C49.6275 20.7413 49.6281 20.7416 49.6287 20.7419C49.6293 20.7422 49.6299 20.7425 49.6305 20.7428C49.6311 20.7431 49.6317 20.7434 49.6322 20.7437C49.6328 20.744 49.6334 20.7443 49.634 20.7446C49.6346 20.7449 49.6352 20.7452 49.6358 20.7455C49.6364 20.7457 49.637 20.746 49.6376 20.7463C49.6381 20.7466 49.6387 20.7469 49.6393 20.7472C49.6399 20.7475 49.6405 20.7478 49.6411 20.7481C49.6417 20.7484 49.6423 20.7487 49.6429 20.749C49.6434 20.7493 49.644 20.7496 49.6446 20.7499C49.6452 20.7502 49.6458 20.7505 49.6464 20.7508C49.647 20.7511 49.6476 20.7514 49.6482 20.7516C49.6488 20.7519 49.6494 20.7522 49.65 20.7525C49.6505 20.7528 49.6511 20.7531 49.6517 20.7534C49.6523 20.7537 49.6529 20.754 49.6535 20.7543C49.6541 20.7546 49.6547 20.7549 49.6553 20.7552C49.6559 20.7555 49.6565 20.7558 49.6571 20.7561C49.6576 20.7564 49.6582 20.7567 49.6588 20.757C49.6594 20.7573 49.66 20.7576 49.6606 20.7579C49.6612 20.7582 49.6618 20.7585 49.6624 20.7588C49.663 20.7591 49.6636 20.7593 49.6642 20.7596C49.6648 20.7599 49.6654 20.7602 49.6659 20.7605C49.6665 20.7608 49.6671 20.7611 49.6677 20.7614C49.6683 20.7617 49.6689 20.762 49.6695 20.7623C49.6701 20.7626 49.6707 20.7629 49.6713 20.7632C49.6719 20.7635 49.6725 20.7638 49.6731 20.7641C49.6737 20.7644 49.6743 20.7647 49.6749 20.765C49.6755 20.7653 49.676 20.7656 49.6766 20.7659C49.6772 20.7662 49.6778 20.7665 49.6784 20.7668C49.679 20.7671 49.6796 20.7674 49.6802 20.7677C49.6808 20.768 49.6814 20.7683 49.682 20.7686C49.6826 20.7689 49.6832 20.7692 49.6838 20.7695C49.6844 20.7698 49.685 20.7701 49.6856 20.7703C49.6862 20.7706 49.6868 20.7709 49.6874 20.7712C49.688 20.7715 49.6886 20.7718 49.6892 20.7721C49.6898 20.7724 49.6903 20.7727 49.6909 20.773C49.6915 20.7733 49.6921 20.7736 49.6927 20.7739C49.6933 20.7742 49.6939 20.7745 49.6945 20.7748C49.6951 20.7751 49.6957 20.7754 49.6963 20.7757C49.6969 20.776 49.6975 20.7763 49.6981 20.7766C49.6987 20.7769 49.6993 20.7772 49.6999 20.7775C49.7005 20.7778 49.7011 20.7781 49.7017 20.7784C49.7023 20.7787 49.7029 20.779 49.7035 20.7793C49.7041 20.7796 49.7047 20.7799 49.7053 20.7802C49.7059 20.7805 49.7065 20.7808 49.7071 20.7811C49.7077 20.7814 49.7083 20.7817 49.7089 20.782C49.7095 20.7823 49.7101 20.7826 49.7107 20.7829C49.7113 20.7832 49.7119 20.7835 49.7125 20.7838C49.7131 20.7841 49.7137 20.7844 49.7143 20.7847C49.7149 20.785 49.7155 20.7853 49.7161 20.7856C49.7167 20.7859 49.7173 20.7862 49.7179 20.7865C49.7185 20.7868 49.7191 20.7871 49.7197 20.7874C49.7203 20.7877 49.7209 20.788 49.7215 20.7883C49.7221 20.7886 49.7227 20.7889 49.7233 20.7892C49.7239 20.7895 49.7245 20.7898 49.7251 20.7901C49.7257 20.7904 49.7263 20.7907 49.7269 20.791C49.7275 20.7913 49.7281 20.7916 49.7287 20.7919C49.7293 20.7922 49.7299 20.7925 49.7305 20.7928C49.7311 20.7931 49.7317 20.7934 49.7323 20.7937C49.7329 20.794 49.7335 20.7943 49.7341 20.7946C49.7347 20.7949 49.7353 20.7952 49.7359 20.7955C49.7365 20.7958 49.7371 20.7961 49.7378 20.7964C49.7384 20.7967 49.739 20.797 49.7396 20.7973C49.7402 20.7976 49.7408 20.7979 49.7414 20.7982C49.742 20.7985 49.7426 20.7989 49.7432 20.7992C49.7438 20.7995 49.7444 20.7998 49.745 20.8001C49.7456 20.8004 49.7462 20.8007 49.7468 20.801C49.7474 20.8013 49.748 20.8016 49.7486 20.8019C49.7492 20.8022 49.7498 20.8025 49.7504 20.8028C49.751 20.8031 49.7516 20.8034 49.7523 20.8037C49.7529 20.804 49.7535 20.8043 49.7541 20.8046C49.7547 20.8049 49.7553 20.8052 49.7559 20.8055C49.7565 20.8058 49.7571 20.8061 49.7577 20.8064C49.7583 20.8067 49.7589 20.807 49.7595 20.8073C49.7601 20.8076 49.7607 20.8079 49.7613 20.8082C49.7619 20.8085 49.7626 20.8088 49.7632 20.8091C49.7638 20.8094 49.7644 20.8097 49.765 20.8101C49.7656 20.8104 49.7662 20.8107 49.7668 20.811C49.7674 20.8113 49.768 20.8116 49.7686 20.8119C49.7692 20.8122 49.7698 20.8125 49.7704 20.8128C49.7711 20.8131 49.7717 20.8134 49.7723 20.8137C49.7729 20.814 49.7735 20.8143 49.7741 20.8146C49.7747 20.8149 49.7753 20.8152 49.7759 20.8155C49.7765 20.8158 49.7771 20.8161 49.7777 20.8164C49.7784 20.8167 49.779 20.817 49.7796 20.8173C49.7802 20.8177 49.7808 20.818 49.7814 20.8183C49.782 20.8186 49.7826 20.8189 49.7832 20.8192C49.7838 20.8195 49.7844 20.8198 49.7851 20.8201C49.7857 20.8204 49.7863 20.8207 49.7869 20.821C49.7875 20.8213 49.7881 20.8216 49.7887 20.8219C49.7893 20.8222 49.7899 20.8225 49.7905 20.8228C49.7912 20.8231 49.7918 20.8234 49.7924 20.8237C49.793 20.8241 49.7936 20.8244 49.7942 20.8247C49.7948 20.825 49.7954 20.8253 49.796 20.8256C49.7967 20.8259 49.7973 20.8262 49.7979 20.8265C49.7985 20.8268 49.7991 20.8271 49.7997 20.8274C49.8003 20.8277 49.8009 20.828 49.8015 20.8283C49.8022 20.8286 49.8028 20.8289 49.8034 20.8293C49.804 20.8296 49.8046 20.8299 49.8052 20.8302C49.8058 20.8305 49.8064 20.8308 49.8071 20.8311C49.8077 20.8314 49.8083 20.8317 49.8089 20.832C49.8095 20.8323 49.8101 20.8326 49.8107 20.8329C49.8113 20.8332 49.812 20.8335 49.8126 20.8338C49.8132 20.8342 49.8138 20.8345 49.8144 20.8348C49.815 20.8351 49.8156 20.8354 49.8162 20.8357C49.8169 20.836 49.8175 20.8363 49.8181 20.8366C49.8187 20.8369 49.8193 20.8372 49.8199 20.8375C49.8205 20.8378 49.8212 20.8381 49.8218 20.8385C49.8224 20.8388 49.823 20.8391 49.8236 20.8394C49.8242 20.8397 49.8249 20.84 49.8255 20.8403C49.8261 20.8406 49.8267 20.8409 49.8273 20.8412C49.8279 20.8415 49.8285 20.8418 49.8292 20.8421C49.8298 20.8424 49.8304 20.8428 49.831 20.8431C49.8316 20.8434 49.8322 20.8437 49.8329 20.844C49.8335 20.8443 49.8341 20.8446 49.8347 20.8449C49.8353 20.8452 49.8359 20.8455 49.8365 20.8458C49.8372 20.8461 49.8378 20.8465 49.8384 20.8468C49.839 20.8471 49.8396 20.8474 49.8403 20.8477C49.8409 20.848 49.8415 20.8483 49.8421 20.8486C49.8427 20.8489 49.8433 20.8492 49.844 20.8495C49.8446 20.8498 49.8452 20.8502 49.8458 20.8505C49.8464 20.8508 49.847 20.8511 49.8477 20.8514C49.8483 20.8517 49.8489 20.852 49.8495 20.8523C49.8501 20.8526 49.8507 20.8529 49.8514 20.8532C49.852 20.8536 49.8526 20.8539 49.8532 20.8542C49.8538 20.8545 49.8545 20.8548 49.8551 20.8551C49.8557 20.8554 49.8563 20.8557 49.8569 20.856C49.8576 20.8563 49.8582 20.8566 49.8588 20.857C49.8594 20.8573 49.86 20.8576 49.8607 20.8579C49.8613 20.8582 49.8619 20.8585 49.8625 20.8588C49.8631 20.8591 49.8638 20.8594 49.8644 20.8597C49.865 20.8601 49.8656 20.8604 49.8662 20.8607C49.8669 20.861 49.8675 20.8613 49.8681 20.8616C49.8687 20.8619 49.8693 20.8622 49.87 20.8625C49.8706 20.8629 49.8712 20.8632 49.8718 20.8635C49.8724 20.8638 49.8731 20.8641 49.8737 20.8644C49.8743 20.8647 49.8749 20.865 49.8755 20.8653C49.8762 20.8656 49.8768 20.866 49.8774 20.8663C49.878 20.8666 49.8787 20.8669 49.8793 20.8672C49.8799 20.8675 49.8805 20.8678 49.8811 20.8681C49.8818 20.8684 49.8824 20.8688 49.883 20.8691C49.8836 20.8694 49.8843 20.8697 49.8849 20.87C49.8855 20.8703 49.8861 20.8706 49.8867 20.8709C49.8874 20.8712 49.888 20.8716 49.8886 20.8719C49.8892 20.8722 49.8899 20.8725 49.8905 20.8728C49.8911 20.8731 49.8917 20.8734 49.8924 20.8737C49.893 20.8741 49.8936 20.8744 49.8942 20.8747C49.8949 20.875 49.8955 20.8753 49.8961 20.8756C49.8967 20.8759 49.8974 20.8762 49.898 20.8766C49.8986 20.8769 49.8992 20.8772 49.8999 20.8775C49.9005 20.8778 49.9011 20.8781 49.9017 20.8784L50.7962 19.0896C50.7955 19.0893 50.7949 19.0889 50.7943 19.0886C50.7937 19.0883 50.793 19.088 50.7924 19.0877C50.7918 19.0874 50.7912 19.0871 50.7905 19.0868C50.7899 19.0864 50.7893 19.0861 50.7887 19.0858C50.788 19.0855 50.7874 19.0852 50.7868 19.0849C50.7862 19.0846 50.7855 19.0843 50.7849 19.084C50.7843 19.0836 50.7837 19.0833 50.783 19.083C50.7824 19.0827 50.7818 19.0824 50.7812 19.0821C50.7806 19.0818 50.7799 19.0815 50.7793 19.0811C50.7787 19.0808 50.7781 19.0805 50.7774 19.0802C50.7768 19.0799 50.7762 19.0796 50.7756 19.0793C50.775 19.079 50.7743 19.0787 50.7737 19.0783C50.7731 19.078 50.7725 19.0777 50.7718 19.0774C50.7712 19.0771 50.7706 19.0768 50.77 19.0765C50.7694 19.0762 50.7687 19.0759 50.7681 19.0755C50.7675 19.0752 50.7669 19.0749 50.7662 19.0746C50.7656 19.0743 50.765 19.074 50.7644 19.0737C50.7638 19.0734 50.7631 19.0731 50.7625 19.0728C50.7619 19.0724 50.7613 19.0721 50.7607 19.0718C50.76 19.0715 50.7594 19.0712 50.7588 19.0709C50.7582 19.0706 50.7576 19.0703 50.7569 19.07C50.7563 19.0697 50.7557 19.0693 50.7551 19.069C50.7545 19.0687 50.7538 19.0684 50.7532 19.0681C50.7526 19.0678 50.752 19.0675 50.7514 19.0672C50.7507 19.0669 50.7501 19.0666 50.7495 19.0662C50.7489 19.0659 50.7483 19.0656 50.7477 19.0653C50.747 19.065 50.7464 19.0647 50.7458 19.0644C50.7452 19.0641 50.7446 19.0638 50.7439 19.0635C50.7433 19.0632 50.7427 19.0628 50.7421 19.0625C50.7415 19.0622 50.7409 19.0619 50.7402 19.0616C50.7396 19.0613 50.739 19.061 50.7384 19.0607C50.7378 19.0604 50.7371 19.0601 50.7365 19.0598C50.7359 19.0594 50.7353 19.0591 50.7347 19.0588C50.7341 19.0585 50.7334 19.0582 50.7328 19.0579C50.7322 19.0576 50.7316 19.0573 50.731 19.057C50.7304 19.0567 50.7297 19.0564 50.7291 19.0561C50.7285 19.0557 50.7279 19.0554 50.7273 19.0551C50.7267 19.0548 50.726 19.0545 50.7254 19.0542C50.7248 19.0539 50.7242 19.0536 50.7236 19.0533C50.723 19.053 50.7224 19.0527 50.7217 19.0524C50.7211 19.0521 50.7205 19.0517 50.7199 19.0514C50.7193 19.0511 50.7187 19.0508 50.718 19.0505C50.7174 19.0502 50.7168 19.0499 50.7162 19.0496C50.7156 19.0493 50.715 19.049 50.7144 19.0487C50.7137 19.0484 50.7131 19.0481 50.7125 19.0478C50.7119 19.0474 50.7113 19.0471 50.7107 19.0468C50.7101 19.0465 50.7094 19.0462 50.7088 19.0459C50.7082 19.0456 50.7076 19.0453 50.707 19.045C50.7064 19.0447 50.7058 19.0444 50.7052 19.0441C50.7045 19.0438 50.7039 19.0435 50.7033 19.0432C50.7027 19.0428 50.7021 19.0425 50.7015 19.0422C50.7009 19.0419 50.7003 19.0416 50.6996 19.0413C50.699 19.041 50.6984 19.0407 50.6978 19.0404C50.6972 19.0401 50.6966 19.0398 50.696 19.0395C50.6954 19.0392 50.6947 19.0389 50.6941 19.0386C50.6935 19.0383 50.6929 19.038 50.6923 19.0376C50.6917 19.0373 50.6911 19.037 50.6905 19.0367C50.6899 19.0364 50.6892 19.0361 50.6886 19.0358C50.688 19.0355 50.6874 19.0352 50.6868 19.0349C50.6862 19.0346 50.6856 19.0343 50.685 19.034C50.6844 19.0337 50.6838 19.0334 50.6831 19.0331C50.6825 19.0328 50.6819 19.0325 50.6813 19.0321C50.6807 19.0318 50.6801 19.0315 50.6795 19.0312C50.6789 19.0309 50.6783 19.0306 50.6777 19.0303C50.677 19.03 50.6764 19.0297 50.6758 19.0294C50.6752 19.0291 50.6746 19.0288 50.674 19.0285C50.6734 19.0282 50.6728 19.0279 50.6722 19.0276C50.6716 19.0273 50.671 19.027 50.6703 19.0267C50.6697 19.0264 50.6691 19.0261 50.6685 19.0258C50.6679 19.0254 50.6673 19.0251 50.6667 19.0248C50.6661 19.0245 50.6655 19.0242 50.6649 19.0239C50.6643 19.0236 50.6637 19.0233 50.6631 19.023C50.6624 19.0227 50.6618 19.0224 50.6612 19.0221C50.6606 19.0218 50.66 19.0215 50.6594 19.0212C50.6588 19.0209 50.6582 19.0206 50.6576 19.0203C50.657 19.02 50.6564 19.0197 50.6558 19.0194C50.6552 19.0191 50.6546 19.0188 50.6539 19.0185C50.6533 19.0182 50.6527 19.0179 50.6521 19.0176C50.6515 19.0173 50.6509 19.017 50.6503 19.0167C50.6497 19.0163 50.6491 19.016 50.6485 19.0157C50.6479 19.0154 50.6473 19.0151 50.6467 19.0148C50.6461 19.0145 50.6455 19.0142 50.6449 19.0139C50.6443 19.0136 50.6437 19.0133 50.6431 19.013C50.6424 19.0127 50.6418 19.0124 50.6412 19.0121C50.6406 19.0118 50.64 19.0115 50.6394 19.0112C50.6388 19.0109 50.6382 19.0106 50.6376 19.0103C50.637 19.01 50.6364 19.0097 50.6358 19.0094C50.6352 19.0091 50.6346 19.0088 50.634 19.0085C50.6334 19.0082 50.6328 19.0079 50.6322 19.0076C50.6316 19.0073 50.631 19.007 50.6304 19.0067C50.6298 19.0064 50.6292 19.0061 50.6286 19.0058C50.628 19.0055 50.6274 19.0052 50.6268 19.0049C50.6262 19.0046 50.6255 19.0043 50.6249 19.004C50.6243 19.0037 50.6237 19.0034 50.6231 19.0031C50.6225 19.0028 50.6219 19.0025 50.6213 19.0022C50.6207 19.0019 50.6201 19.0016 50.6195 19.0013C50.6189 19.001 50.6183 19.0007 50.6177 19.0004C50.6171 19.0001 50.6165 18.9998 50.6159 18.9995C50.6153 18.9992 50.6147 18.9989 50.6141 18.9986C50.6135 18.9983 50.6129 18.998 50.6123 18.9977C50.6117 18.9974 50.6111 18.9971 50.6105 18.9967C50.6099 18.9965 50.6093 18.9962 50.6087 18.9958C50.6081 18.9956 50.6075 18.9953 50.6069 18.9949C50.6063 18.9946 50.6057 18.9944 50.6051 18.9941C50.6045 18.9938 50.6039 18.9935 50.6033 18.9932C50.6027 18.9929 50.6021 18.9926 50.6015 18.9923C50.6009 18.992 50.6003 18.9917 50.5997 18.9914C50.5991 18.9911 50.5985 18.9908 50.5979 18.9905C50.5973 18.9902 50.5967 18.9899 50.5961 18.9896C50.5955 18.9893 50.5949 18.989 50.5943 18.9887C50.5937 18.9884 50.5931 18.9881 50.5925 18.9878C50.5919 18.9875 50.5913 18.9872 50.5907 18.9869C50.5901 18.9866 50.5896 18.9863 50.589 18.986C50.5884 18.9857 50.5878 18.9854 50.5872 18.9851C50.5866 18.9848 50.586 18.9845 50.5854 18.9842C50.5848 18.9839 50.5842 18.9836 50.5836 18.9833C50.583 18.983 50.5824 18.9827 50.5818 18.9824C50.5812 18.9821 50.5806 18.9818 50.58 18.9815C50.5794 18.9812 50.5788 18.9809 50.5782 18.9806C50.5776 18.9803 50.577 18.98 50.5764 18.9797C50.5758 18.9794 50.5752 18.9791 50.5746 18.9788C50.574 18.9785 50.5734 18.9782 50.5729 18.9779C50.5723 18.9776 50.5717 18.9773 50.5711 18.977C50.5705 18.9767 50.5699 18.9764 50.5693 18.9761C50.5687 18.9758 50.5681 18.9755 50.5675 18.9752C50.5669 18.9749 50.5663 18.9746 50.5657 18.9744C50.5651 18.9741 50.5645 18.9738 50.5639 18.9735C50.5633 18.9732 50.5627 18.9729 50.5622 18.9726C50.5616 18.9723 50.561 18.972 50.5604 18.9717C50.5598 18.9714 50.5592 18.9711 50.5586 18.9708C50.558 18.9705 50.5574 18.9702 50.5568 18.9699C50.5562 18.9696 50.5556 18.9693 50.555 18.969C50.5544 18.9687 50.5538 18.9684 50.5533 18.9681C50.5527 18.9678 50.5521 18.9675 50.5515 18.9672C50.5509 18.9669 50.5503 18.9666 50.5497 18.9663C50.5491 18.966 50.5485 18.9658 50.5479 18.9655C50.5473 18.9652 50.5467 18.9649 50.5462 18.9646C50.5456 18.9643 50.545 18.964 50.5444 18.9637C50.5438 18.9634 50.5432 18.9631 50.5426 18.9628C50.542 18.9625 50.5414 18.9622 50.5408 18.9619C50.5402 18.9616 50.5396 18.9613 50.5391 18.961C50.5385 18.9607 50.5379 18.9604 50.5373 18.9601C50.5367 18.9598 50.5361 18.9595 50.5355 18.9593C50.5349 18.959 50.5343 18.9587 50.5337 18.9584C50.5332 18.9581 50.5326 18.9578 50.532 18.9575C50.5314 18.9572 50.5308 18.9569 50.5302 18.9566C50.5296 18.9563 50.529 18.956 50.5284 18.9557C50.5279 18.9554 50.5273 18.9551 50.5267 18.9548C50.5261 18.9545 50.5255 18.9542 50.5249 18.9539C50.5243 18.9537 50.5237 18.9534 50.5231 18.9531C50.5226 18.9528 50.522 18.9525 50.5214 18.9522C50.5208 18.9519 50.5202 18.9516 50.5196 18.9513C50.519 18.951 50.5184 18.9507 50.5179 18.9504C50.5173 18.9501 50.5167 18.9498 50.5161 18.9495C50.5155 18.9492 50.5149 18.9489 50.5143 18.9487C50.5137 18.9484 50.5132 18.9481 50.5126 18.9478C50.512 18.9475 50.5114 18.9472 50.5108 18.9469C50.5102 18.9466 50.5096 18.9463 50.509 18.946C50.5085 18.9457 50.5079 18.9454 50.5073 18.9451C50.5067 18.9448 50.5061 18.9446 50.5055 18.9443C50.5049 18.944 50.5044 18.9437 50.5038 18.9434C50.5032 18.9431 50.5026 18.9428 50.502 18.9425C50.5014 18.9422 50.5008 18.9419 50.5003 18.9416C50.4997 18.9413 50.4991 18.941 50.4985 18.9407C50.4979 18.9405 50.4973 18.9402 50.4967 18.9399C50.4962 18.9396 50.4956 18.9393 50.495 18.939C50.4944 18.9387 50.4938 18.9384 50.4932 18.9381C50.4927 18.9378 50.4921 18.9375 50.4915 18.9372C50.4909 18.9369 50.4903 18.9367 50.4897 18.9364C50.4892 18.9361 50.4886 18.9358 50.488 18.9355C50.4874 18.9352 50.4868 18.9349 50.4862 18.9346C50.4857 18.9343 50.4851 18.934 50.4845 18.9337C50.4839 18.9334 50.4833 18.9332 50.4827 18.9329C50.4822 18.9326 50.4816 18.9323 50.481 18.932C50.4804 18.9317 50.4798 18.9314 50.4792 18.9311C50.4787 18.9308 50.4781 18.9305 50.4775 18.9302C50.4769 18.93 50.4763 18.9297 50.4757 18.9294C50.4752 18.9291 50.4746 18.9288 50.474 18.9285C50.4734 18.9282 50.4728 18.9279 50.4723 18.9276C50.4717 18.9273 50.4711 18.927 50.4705 18.9268C50.4699 18.9265 50.4694 18.9262 50.4688 18.9259C50.4682 18.9256 50.4676 18.9253 50.467 18.925C50.4665 18.9247 50.4659 18.9244 50.4653 18.9241C50.4647 18.9238 50.4641 18.9236 50.4636 18.9233C50.463 18.923 50.4624 18.9227 50.4618 18.9224C50.4612 18.9221 50.4607 18.9218 50.4601 18.9215C50.4595 18.9212 50.4589 18.9209 50.4583 18.9207C50.4578 18.9204 50.4572 18.9201 50.4566 18.9198C50.456 18.9195 50.4554 18.9192 50.4549 18.9189C50.4543 18.9186 50.4537 18.9183 50.4531 18.9181C50.4525 18.9178 50.452 18.9175 50.4514 18.9172C50.4508 18.9169 50.4502 18.9166 50.4497 18.9163C50.4491 18.916 50.4485 18.9157 50.4479 18.9155C50.4473 18.9152 50.4468 18.9149 50.4462 18.9146C50.4456 18.9143 50.445 18.914 50.4445 18.9137C50.4439 18.9134 50.4433 18.9131 50.4427 18.9129C50.4421 18.9126 50.4416 18.9123 50.441 18.912C50.4404 18.9117 50.4398 18.9114 50.4393 18.9111C50.4387 18.9108 50.4381 18.9105 50.4375 18.9103C50.437 18.91 50.4364 18.9097 50.4358 18.9094C50.4352 18.9091 50.4346 18.9088 50.4341 18.9085C50.4335 18.9082 50.4329 18.908 50.4323 18.9077C50.4318 18.9074 50.4312 18.9071 50.4306 18.9068C50.43 18.9065 50.4295 18.9062 50.4289 18.9059C50.4283 18.9057 50.4277 18.9054 50.4272 18.9051C50.4266 18.9048 50.426 18.9045 50.4254 18.9042C50.4249 18.9039 50.4243 18.9036 50.4237 18.9034C50.4231 18.9031 50.4226 18.9028 50.422 18.9025C50.4214 18.9022 50.4208 18.9019 50.4203 18.9016C50.4197 18.9013 50.4191 18.9011 50.4186 18.9008C50.418 18.9005 50.4174 18.9002 50.4168 18.8999C50.4163 18.8996 50.4157 18.8993 50.4151 18.899C50.4145 18.8988 50.414 18.8985 50.4134 18.8982C50.4128 18.8979 50.4122 18.8976 50.4117 18.8973C50.4111 18.897 50.4105 18.8968 50.41 18.8965C50.4094 18.8962 50.4088 18.8959 50.4082 18.8956C50.4077 18.8953 50.4071 18.895 50.4065 18.8948C50.406 18.8945 50.4054 18.8942 50.4048 18.8939C50.4042 18.8936 50.4037 18.8933 50.4031 18.893C50.4025 18.8928 50.4019 18.8925 50.4014 18.8922C50.4008 18.8919 50.4002 18.8916 50.3997 18.8913C50.3991 18.891 50.3985 18.8908 50.398 18.8905C50.3974 18.8902 50.3968 18.8899 50.3962 18.8896C50.3957 18.8893 50.3951 18.889 50.3945 18.8888C50.394 18.8885 50.3934 18.8882 50.3928 18.8879C50.3922 18.8876 50.3917 18.8873 50.3911 18.887C50.3905 18.8868 50.39 18.8865 50.3894 18.8862C50.3888 18.8859 50.3883 18.8856 50.3877 18.8853C50.3871 18.8851 50.3866 18.8848 50.386 18.8845C50.3854 18.8842 50.3848 18.8839 50.3843 18.8836C50.3837 18.8833 50.3831 18.8831 50.3826 18.8828C50.382 18.8825 50.3814 18.8822 50.3809 18.8819C50.3803 18.8816 50.3797 18.8814 50.3792 18.8811C50.3786 18.8808 50.378 18.8805 50.3775 18.8802C50.3769 18.8799 50.3763 18.8797 50.3758 18.8794C50.3752 18.8791 50.3746 18.8788 50.374 18.8785C50.3735 18.8782 50.3729 18.878 50.3723 18.8777C50.3718 18.8774 50.3712 18.8771 50.3706 18.8768C50.3701 18.8765 50.3695 18.8762 50.3689 18.876C50.3684 18.8757 50.3678 18.8754 50.3672 18.8751C50.3667 18.8748 50.3661 18.8745 50.3655 18.8743C50.365 18.874 50.3644 18.8737 50.3638 18.8734C50.3633 18.8731 50.3627 18.8729 50.3622 18.8726C50.3616 18.8723 50.361 18.872 50.3605 18.8717C50.3599 18.8714 50.3593 18.8712 50.3588 18.8709C50.3582 18.8706 50.3576 18.8703 50.3571 18.87C50.3565 18.8697 50.3559 18.8695 50.3554 18.8692C50.3548 18.8689 50.3542 18.8686 50.3537 18.8683C50.3531 18.868 50.3525 18.8678 50.352 18.8675C50.3514 18.8672 50.3509 18.8669 50.3503 18.8666C50.3497 18.8664 50.3492 18.8661 50.3486 18.8658C50.348 18.8655 50.3475 18.8652 50.3469 18.8649C50.3463 18.8647 50.3458 18.8644 50.3452 18.8641C50.3447 18.8638 50.3441 18.8635 50.3435 18.8633C50.343 18.863 50.3424 18.8627 50.3418 18.8624C50.3413 18.8621 50.3407 18.8619 50.3402 18.8616C50.3396 18.8613 50.339 18.861 50.3385 18.8607C50.3379 18.8604 50.3373 18.8602 50.3368 18.8599C50.3362 18.8596 50.3357 18.8593 50.3351 18.859C50.3345 18.8588 50.334 18.8585 50.3334 18.8582C50.3328 18.8579 50.3323 18.8576 50.3317 18.8574C50.3312 18.8571 50.3306 18.8568 50.33 18.8565C50.3295 18.8562 50.3289 18.856 50.3284 18.8557C50.3278 18.8554 50.3272 18.8551 50.3267 18.8548C50.3261 18.8546 50.3256 18.8543 50.325 18.854C50.3244 18.8537 50.3239 18.8534 50.3233 18.8532C50.3228 18.8529 50.3222 18.8526 50.3216 18.8523C50.3211 18.852 50.3205 18.8518 50.32 18.8515C50.3194 18.8512 50.3188 18.8509 50.3183 18.8506C50.3177 18.8504 50.3172 18.8501 50.3166 18.8498C50.316 18.8495 50.3155 18.8492 50.3149 18.849C50.3144 18.8487 50.3138 18.8484 50.3132 18.8481C50.3127 18.8478 50.3121 18.8476 50.3116 18.8473C50.311 18.847 50.3105 18.8467 50.3099 18.8464C50.3093 18.8462 50.3088 18.8459 50.3082 18.8456C50.3077 18.8453 50.3071 18.845 50.3065 18.8448C50.306 18.8445 50.3054 18.8442 50.3049 18.8439C50.3043 18.8437 50.3038 18.8434 50.3032 18.8431C50.3026 18.8428 50.3021 18.8425 50.3015 18.8423C50.301 18.842 50.3004 18.8417 50.2999 18.8414C50.2993 18.8411 50.2987 18.8409 50.2982 18.8406C50.2976 18.8403 50.2971 18.84 50.2965 18.8398C50.296 18.8395 50.2954 18.8392 50.2949 18.8389C50.2943 18.8386 50.2937 18.8384 50.2932 18.8381C50.2926 18.8378 50.2921 18.8375 50.2915 18.8373C50.291 18.837 50.2904 18.8367 50.2899 18.8364C50.2893 18.8361 50.2887 18.8359 50.2882 18.8356C50.2876 18.8353 50.2871 18.835 50.2865 18.8348C50.286 18.8345 50.2854 18.8342 50.2849 18.8339C50.2843 18.8336 50.2838 18.8334 50.2832 18.8331C50.2826 18.8328 50.2821 18.8325 50.2815 18.8323C50.281 18.832 50.2804 18.8317 50.2799 18.8314C50.2793 18.8312 50.2788 18.8309 50.2782 18.8306C50.2777 18.8303 50.2771 18.83 50.2766 18.8298C50.276 18.8295 50.2754 18.8292 50.2749 18.8289C50.2743 18.8287 50.2738 18.8284 50.2732 18.8281C50.2727 18.8278 50.2721 18.8276 50.2716 18.8273C50.271 18.827 50.2705 18.8267 50.2699 18.8265C50.2694 18.8262 50.2688 18.8259 50.2683 18.8256C50.2677 18.8254 50.2672 18.8251 50.2666 18.8248C50.2661 18.8245 50.2655 18.8242 50.265 18.824C50.2644 18.8237 50.2639 18.8234 50.2633 18.8231C50.2628 18.8229 50.2622 18.8226 50.2616 18.8223C50.2611 18.822 50.2605 18.8218 50.26 18.8215C50.2594 18.8212 50.2589 18.8209 50.2583 18.8207C50.2578 18.8204 50.2572 18.8201 50.2567 18.8198C50.2561 18.8196 50.2556 18.8193 50.255 18.819C50.2545 18.8187 50.2539 18.8185 50.2534 18.8182C50.2528 18.8179 50.2523 18.8176 50.2517 18.8174C50.2512 18.8171 50.2506 18.8168 50.2501 18.8165C50.2495 18.8163 50.249 18.816 50.2484 18.8157C50.2479 18.8154 50.2474 18.8152 50.2468 18.8149C50.2463 18.8146 50.2457 18.8143 50.2452 18.8141C50.2446 18.8138 50.2441 18.8135 50.2435 18.8132C50.243 18.813 50.2424 18.8127 50.2419 18.8124C50.2413 18.8122 50.2408 18.8119 50.2402 18.8116C50.2397 18.8113 50.2391 18.8111 50.2386 18.8108C50.238 18.8105 50.2375 18.8102 50.2369 18.81C50.2364 18.8097 50.2358 18.8094 50.2353 18.8091C50.2347 18.8089 50.2342 18.8086 50.2337 18.8083C50.2331 18.808 50.2326 18.8078 50.232 18.8075C50.2315 18.8072 50.2309 18.807 50.2304 18.8067C50.2298 18.8064 50.2293 18.8061 50.2287 18.8059C50.2282 18.8056 50.2276 18.8053 50.2271 18.805C50.2265 18.8048 50.226 18.8045 50.2255 18.8042C50.2249 18.804 50.2244 18.8037 50.2238 18.8034C50.2233 18.8031 50.2227 18.8029 50.2222 18.8026C50.2216 18.8023 50.2211 18.802 50.2206 18.8018C50.22 18.8015 50.2195 18.8012 50.2189 18.801C50.2184 18.8007 50.2178 18.8004 50.2173 18.8001C50.2167 18.7999 50.2162 18.7996 50.2157 18.7993C50.2151 18.799 50.2146 18.7988 50.214 18.7985C50.2135 18.7982 50.2129 18.798 50.2124 18.7977C50.2118 18.7974 50.2113 18.7971 50.2108 18.7969C50.2102 18.7966 50.2097 18.7963 50.2091 18.7961C50.2086 18.7958 50.208 18.7955 50.2075 18.7952C50.207 18.795 50.2064 18.7947 50.2059 18.7944C50.2053 18.7942 50.2048 18.7939 50.2042 18.7936C50.2037 18.7933 50.2032 18.7931 50.2026 18.7928C50.2021 18.7925 50.2015 18.7923 50.201 18.792C50.2004 18.7917 50.1999 18.7914 50.1994 18.7912C50.1988 18.7909 50.1983 18.7906 50.1977 18.7904C50.1972 18.7901 50.1967 18.7898 50.1961 18.7896C50.1956 18.7893 50.195 18.789 50.1945 18.7887C50.1939 18.7885 50.1934 18.7882 50.1929 18.7879C50.1923 18.7877 50.1918 18.7874 50.1912 18.7871C50.1907 18.7868 50.1902 18.7866 50.1896 18.7863C50.1891 18.786 50.1885 18.7858 50.188 18.7855C50.1875 18.7852 50.1869 18.785 50.1864 18.7847C50.1858 18.7844 50.1853 18.7841 50.1848 18.7839C50.1842 18.7836 50.1837 18.7833 50.1831 18.7831C50.1826 18.7828 50.1821 18.7825 50.1815 18.7823C50.181 18.782 50.1805 18.7817 50.1799 18.7814C50.1794 18.7812 50.1788 18.7809 50.1783 18.7806C50.1778 18.7804 50.1772 18.7801 50.1767 18.7798C50.1761 18.7796 50.1756 18.7793 50.1751 18.779C50.1745 18.7788 50.174 18.7785 50.1735 18.7782C50.1729 18.778 50.1724 18.7777 50.1718 18.7774C50.1713 18.7771 50.1708 18.7769 50.1702 18.7766C50.1697 18.7763 50.1692 18.7761 50.1686 18.7758C50.1681 18.7755 50.1675 18.7753 50.167 18.775C50.1665 18.7747 50.1659 18.7745 50.1654 18.7742C50.1649 18.7739 50.1643 18.7737 50.1638 18.7734C50.1632 18.7731 50.1627 18.7728 50.1622 18.7726C50.1616 18.7723 50.1611 18.772 50.1606 18.7718C50.16 18.7715 50.1595 18.7712 50.159 18.771C50.1584 18.7707 50.1579 18.7704 50.1574 18.7702C50.1568 18.7699 50.1563 18.7696 50.1557 18.7694C50.1552 18.7691 50.1547 18.7688 50.1541 18.7686C50.1536 18.7683 50.1531 18.768 50.1525 18.7678C50.152 18.7675 50.1515 18.7672 50.1509 18.767C50.1504 18.7667 50.1499 18.7664 50.1493 18.7662C50.1488 18.7659 50.1483 18.7656 50.1477 18.7654C50.1472 18.7651 50.1467 18.7648 50.1461 18.7646C50.1456 18.7643 50.1451 18.764 50.1445 18.7638C50.144 18.7635 50.1435 18.7632 50.1429 18.763C50.1424 18.7627 50.1419 18.7624 50.1413 18.7622C50.1408 18.7619 50.1403 18.7616 50.1397 18.7614C50.1392 18.7611 50.1387 18.7608 50.1381 18.7606C50.1376 18.7603 50.1371 18.76 50.1365 18.7598C50.136 18.7595 50.1355 18.7592 50.1349 18.759C50.1344 18.7587 50.1339 18.7584 50.1333 18.7582C50.1328 18.7579 50.1323 18.7576 50.1317 18.7574C50.1312 18.7571 50.1307 18.7568 50.1302 18.7566C50.1296 18.7563 50.1291 18.756 50.1286 18.7558C50.128 18.7555 50.1275 18.7552 50.127 18.755C50.1264 18.7547 50.1259 18.7544 50.1254 18.7542C50.1248 18.7539 50.1243 18.7537 50.1238 18.7534C50.1233 18.7531 50.1227 18.7529 50.1222 18.7526C50.1217 18.7523 50.1211 18.7521 50.1206 18.7518C50.1201 18.7515 50.1195 18.7513 50.119 18.751C50.1185 18.7507 50.118 18.7505 50.1174 18.7502C50.1169 18.7499 50.1164 18.7497 50.1158 18.7494C50.1153 18.7491 50.1148 18.7489 50.1143 18.7486C50.1137 18.7484 50.1132 18.7481 50.1127 18.7478C50.1121 18.7476 50.1116 18.7473 50.1111 18.747C50.1106 18.7468 50.11 18.7465 50.1095 18.7462C50.109 18.746 50.1084 18.7457 50.1079 18.7454C50.1074 18.7452 50.1069 18.7449 50.1063 18.7447C50.1058 18.7444 50.1053 18.7441 50.1047 18.7439C50.1042 18.7436 50.1037 18.7433 50.1032 18.7431C50.1026 18.7428 50.1021 18.7425 50.1016 18.7423C50.1011 18.742 50.1005 18.7418 50.1 18.7415C50.0995 18.7412 50.0989 18.741 50.0984 18.7407C50.0979 18.7404 50.0974 18.7402 50.0968 18.7399C50.0963 18.7397 50.0958 18.7394 50.0953 18.7391C50.0947 18.7389 50.0942 18.7386 50.0937 18.7383C50.0932 18.7381 50.0926 18.7378 50.0921 18.7376C50.0916 18.7373 50.0911 18.737 50.0905 18.7368C50.09 18.7365 50.0895 18.7362 50.089 18.736C50.0884 18.7357 50.0879 18.7355 50.0874 18.7352C50.0869 18.7349 50.0863 18.7347 50.0858 18.7344C50.0853 18.7341 50.0848 18.7339 50.0842 18.7336C50.0837 18.7334 50.0832 18.7331 50.0827 18.7328C50.0821 18.7326 50.0816 18.7323 50.0811 18.732C50.0806 18.7318 50.0801 18.7315 50.0795 18.7313C50.079 18.731 50.0785 18.7307 50.078 18.7305C50.0774 18.7302 50.0769 18.7299 50.0764 18.7297C50.0759 18.7294 50.0753 18.7292 50.0748 18.7289C50.0743 18.7286 50.0738 18.7284 50.0733 18.7281C50.0727 18.7279 50.0722 18.7276 50.0717 18.7273C50.0712 18.7271 50.0706 18.7268 50.0701 18.7266C50.0696 18.7263 50.0691 18.726 50.0686 18.7258C50.068 18.7255 50.0675 18.7252 50.067 18.725C50.0665 18.7247 50.0659 18.7245 50.0654 18.7242C50.0649 18.7239 50.0644 18.7237 50.0639 18.7234C50.0633 18.7232 50.0628 18.7229 50.0623 18.7226C50.0618 18.7224 50.0613 18.7221 50.0607 18.7219C50.0602 18.7216 50.0597 18.7213 50.0592 18.7211C50.0587 18.7208 50.0581 18.7206 50.0576 18.7203C50.0571 18.72 50.0566 18.7198 50.0561 18.7195C50.0555 18.7193 50.055 18.719 50.0545 18.7187C50.054 18.7185 50.0535 18.7182 50.0529 18.718C50.0524 18.7177 50.0519 18.7174 50.0514 18.7172C50.0509 18.7169 50.0503 18.7167 50.0498 18.7164C50.0493 18.7161 50.0488 18.7159 50.0483 18.7156C50.0477 18.7154 50.0472 18.7151 50.0467 18.7148C50.0462 18.7146 50.0457 18.7143 50.0452 18.7141C50.0446 18.7138 50.0441 18.7136 50.0436 18.7133C50.0431 18.713 50.0426 18.7128 50.0421 18.7125C50.0415 18.7123 50.041 18.712 50.0405 18.7117C50.04 18.7115 50.0395 18.7112 50.0389 18.711C50.0384 18.7107 50.0379 18.7105 50.0374 18.7102C50.0369 18.7099 50.0364 18.7097 50.0358 18.7094C50.0353 18.7092 50.0348 18.7089 50.0343 18.7086C50.0338 18.7084 50.0333 18.7081 50.0327 18.7079C50.0322 18.7076 50.0317 18.7074 50.0312 18.7071C50.0307 18.7068 50.0302 18.7066 50.0297 18.7063C50.0291 18.7061 50.0286 18.7058 50.0281 18.7055C50.0276 18.7053 50.0271 18.705 50.0266 18.7048C50.026 18.7045 50.0255 18.7043 50.025 18.704C50.0245 18.7037 50.024 18.7035 50.0235 18.7032C50.023 18.703 50.0224 18.7027 50.0219 18.7025C50.0214 18.7022 50.0209 18.7019 50.0204 18.7017C50.0199 18.7014 50.0194 18.7012 50.0188 18.7009C50.0183 18.7007 50.0178 18.7004 50.0173 18.7001C50.0168 18.6999 50.0163 18.6996 50.0158 18.6994C50.0152 18.6991 50.0147 18.6989 50.0142 18.6986C50.0137 18.6983 50.0132 18.6981 50.0127 18.6978C50.0122 18.6976 50.0117 18.6973 50.0111 18.6971C50.0106 18.6968 50.0101 18.6966 50.0096 18.6963C50.0091 18.696 50.0086 18.6958 50.0081 18.6955C50.0076 18.6953 50.007 18.695 50.0065 18.6948C50.006 18.6945 50.0055 18.6942 50.005 18.694C50.0045 18.6937 50.004 18.6935 50.0035 18.6932C50.003 18.693 50.0024 18.6927 50.0019 18.6925C50.0014 18.6922 50.0009 18.6919 50.0004 18.6917C49.9999 18.6914 49.9994 18.6912 49.9989 18.6909C49.9984 18.6907 49.9978 18.6904 49.9973 18.6902C49.9968 18.6899 49.9963 18.6896 49.9958 18.6894C49.9953 18.6891 49.9948 18.6889 49.9943 18.6886C49.9938 18.6884 49.9932 18.6881 49.9927 18.6879C49.9922 18.6876 49.9917 18.6874 49.9912 18.6871C49.9907 18.6868 49.9902 18.6866 49.9897 18.6863C49.9892 18.6861 49.9887 18.6858 49.9882 18.6856C49.9876 18.6853 49.9871 18.6851 49.9866 18.6848C49.9861 18.6846 49.9856 18.6843 49.9851 18.684C49.9846 18.6838 49.9841 18.6835 49.9836 18.6833C49.9831 18.683 49.9826 18.6828 49.9821 18.6825C49.9815 18.6823 49.981 18.682 49.9805 18.6818C49.98 18.6815 49.9795 18.6812 49.979 18.681C49.9785 18.6807 49.978 18.6805 49.9775 18.6802C49.977 18.68 49.9765 18.6797 49.976 18.6795C49.9755 18.6792 49.9749 18.679 49.9744 18.6787C49.9739 18.6785 49.9734 18.6782 49.9729 18.678C49.9724 18.6777 49.9719 18.6774 49.9714 18.6772C49.9709 18.6769 49.9704 18.6767 49.9699 18.6764C49.9694 18.6762 49.9689 18.6759 49.9684 18.6757C49.9679 18.6754 49.9674 18.6752 49.9668 18.6749C49.9663 18.6747 49.9658 18.6744 49.9653 18.6742C49.9648 18.6739 49.9643 18.6737 49.9638 18.6734C49.9633 18.6731 49.9628 18.6729 49.9623 18.6726C49.9618 18.6724 49.9613 18.6721 49.9608 18.6719C49.9603 18.6716 49.9598 18.6714 49.9593 18.6711C49.9588 18.6709 49.9583 18.6706 49.9578 18.6704C49.9573 18.6701 49.9568 18.6699 49.9562 18.6696C49.9557 18.6694 49.9552 18.6691 49.9547 18.6689C49.9542 18.6686 49.9537 18.6684 49.9532 18.6681C49.9527 18.6679 49.9522 18.6676 49.9517 18.6674C49.9512 18.6671 49.9507 18.6668 49.9502 18.6666C49.9497 18.6663 49.9492 18.6661 49.9487 18.6658C49.9482 18.6656 49.9477 18.6653 49.9472 18.6651C49.9467 18.6648 49.9462 18.6646 49.9457 18.6643C49.9452 18.6641 49.9447 18.6638 49.9442 18.6636C49.9437 18.6633 49.9432 18.6631 49.9427 18.6628C49.9422 18.6626 49.9417 18.6623 49.9412 18.6621C49.9407 18.6618 49.9402 18.6616 49.9397 18.6613C49.9392 18.6611 49.9387 18.6608 49.9382 18.6606C49.9377 18.6603 49.9372 18.6601 49.9367 18.6598C49.9362 18.6596 49.9357 18.6593 49.9352 18.6591C49.9347 18.6588 49.9342 18.6586 49.9337 18.6583C49.9332 18.6581 49.9327 18.6578 49.9322 18.6576L49.0377 20.4464ZM49.9017 20.8784C50.2296 21.0423 50.6541 21.224 51.0689 21.224V19.224C51.0903 19.224 51.1061 19.2253 51.1156 19.2264C51.1205 19.2269 51.1241 19.2274 51.1265 19.2278C51.1288 19.2282 51.13 19.2284 51.1301 19.2284C51.1301 19.2284 51.1291 19.2282 51.1271 19.2278C51.1251 19.2273 51.1222 19.2265 51.1183 19.2255C51.1105 19.2233 51.0995 19.2201 51.0852 19.2153C51.0242 19.195 50.9297 19.1563 50.7962 19.0896L49.9017 20.8784ZM51.0689 21.224C51.5095 21.224 51.8511 21.0151 52.0758 20.8199C52.3023 20.623 52.4905 20.3724 52.6498 20.1166C52.9699 19.6025 53.2822 18.8881 53.5943 18.0175L51.7116 17.3425C51.4157 18.1679 51.16 18.7255 50.952 19.0594C50.8473 19.2276 50.7815 19.2949 50.7641 19.3101C50.7448 19.3269 50.8524 19.224 51.0689 19.224V21.224ZM52.6529 18.68H53.6129V16.68H52.6529V18.68ZM64.2869 46.912L63.3206 46.6548L63.3186 46.6621L63.3168 46.6695L64.2869 46.912ZM63.9029 49.504L62.9045 49.5595L63.9029 49.504ZM64.7189 50.656L65.0701 49.7197H65.0701L64.7189 50.656ZM67.1189 51.04L68.0995 51.2361L68.3249 50.1092L67.1777 50.0417L67.1189 51.04ZM66.9269 52L66.8646 52.9981L67.7362 53.0525L67.9075 52.1961L66.9269 52ZM62.9429 51.904L62.9233 52.9038L62.9331 52.904H62.9429V51.904ZM53.1029 51.904V52.904H53.1136L53.1242 52.9038L53.1029 51.904ZM49.4549 52L48.4848 51.7575L48.1511 53.0923L49.5237 52.9976L49.4549 52ZM49.6949 51.04L49.6344 50.0418L48.9026 50.0862L48.7248 50.7975L49.6949 51.04ZM52.1429 50.656L51.8418 49.7024L51.8342 49.7048L51.8267 49.7073L52.1429 50.656ZM54.5429 46.912L53.5766 46.6548L53.5746 46.6621L53.5728 46.6695L54.5429 46.912ZM60.8789 23.104L59.9136 22.8431L59.9126 22.8468L60.8789 23.104ZM61.2629 20.512L60.269 20.6224L60.2698 20.6288L61.2629 20.512ZM60.3989 19.36L59.9761 20.2662L60.0113 20.2827L60.0478 20.2963L60.3989 19.36ZM58.0469 18.976L57.0768 18.7335L56.7754 19.939L58.0175 19.9756L58.0469 18.976ZM58.2869 18.016L58.3226 17.0166L57.5132 16.9877L57.3168 17.7735L58.2869 18.016ZM61.8869 18.112L61.8657 19.1118L61.8661 19.1118L61.8869 18.112ZM71.6789 18.112L71.6585 17.1122L71.6789 18.112ZM75.8069 18.016L76.7771 18.2585L77.0965 16.9808L75.7799 17.0164L75.8069 18.016ZM75.5669 18.976L75.5963 19.9756L76.3534 19.9533L76.5371 19.2185L75.5669 18.976ZM73.0229 19.36L73.3241 20.3136L73.3465 20.3065L73.3686 20.2983L73.0229 19.36ZM71.5829 20.512L70.7297 19.9905L70.7253 19.9977L70.721 20.005L71.5829 20.512ZM70.6229 23.104L69.6576 22.8431L69.6566 22.8468L70.6229 23.104ZM63.3168 46.6695C63.0245 47.8385 62.8637 48.825 62.9045 49.5595L64.9014 49.4485C64.8782 49.031 64.9734 48.2895 65.2571 47.1545L63.3168 46.6695ZM62.9045 49.5595C62.9286 49.9928 63.0479 50.4251 63.3149 50.802C63.5844 51.1825 63.9557 51.4378 64.3678 51.5923L65.0701 49.7197C64.9702 49.6822 64.9495 49.6495 64.947 49.646C64.942 49.6389 64.9093 49.5912 64.9014 49.4485L62.9045 49.5595ZM64.3678 51.5923C65.0264 51.8393 65.9508 51.973 67.0602 52.0383L67.1777 50.0417C66.1111 49.979 65.4355 49.8567 65.0701 49.7197L64.3678 51.5923ZM66.1384 50.8439L65.9464 51.8039L67.9075 52.1961L68.0995 51.2361L66.1384 50.8439ZM66.9893 51.0019C65.9362 50.9361 64.5852 50.904 62.9429 50.904V52.904C64.5647 52.904 65.8697 52.9359 66.8646 52.9981L66.9893 51.0019ZM62.9625 50.9042C61.3238 50.8721 59.6532 50.856 57.9509 50.856V52.856C59.6407 52.856 61.2981 52.8719 62.9233 52.9038L62.9625 50.9042ZM57.9509 50.856C56.2169 50.856 54.5937 50.8721 53.0817 50.9042L53.1242 52.9038C54.6202 52.8719 56.229 52.856 57.9509 52.856V50.856ZM53.1029 50.904C51.5881 50.904 50.3466 50.9361 49.3861 51.0024L49.5237 52.9976C50.4193 52.9359 51.6098 52.904 53.1029 52.904V50.904ZM50.4251 52.2425L50.6651 51.2825L48.7248 50.7975L48.4848 51.7575L50.4251 52.2425ZM49.7554 52.0382C50.8443 51.9722 51.7612 51.8373 52.4592 51.6047L51.8267 49.7073C51.3726 49.8587 50.6576 49.9798 49.6344 50.0418L49.7554 52.0382ZM52.4441 51.6096C53.2965 51.3404 53.9664 50.7943 54.4362 50.0255L52.7297 48.9826C52.4955 49.3657 52.2053 49.5876 51.8418 49.7024L52.4441 51.6096ZM54.4362 50.0255C54.8666 49.3212 55.2161 48.3423 55.5131 47.1545L53.5728 46.6695C53.2937 47.7857 53.0033 48.5348 52.7297 48.9826L54.4362 50.0255ZM55.5093 47.1692L61.8453 23.3612L59.9126 22.8468L53.5766 46.6548L55.5093 47.1692ZM61.8443 23.3649C62.1665 22.1728 62.3444 21.146 62.2561 20.3952L60.2698 20.6288C60.3095 20.966 60.2314 21.6672 59.9136 22.8431L61.8443 23.3649ZM62.2568 20.4016C62.2092 19.9728 62.0704 19.5539 61.7989 19.192C61.5251 18.8269 61.1592 18.5771 60.7501 18.4237L60.0478 20.2963C60.1507 20.3349 60.1847 20.3731 60.1989 20.392C60.2155 20.4141 60.2527 20.4751 60.2691 20.6224L62.2568 20.4016ZM60.8218 18.4538C60.1458 18.1383 59.187 18.0091 58.0763 17.9764L58.0175 19.9756C59.0829 20.0069 59.6921 20.1337 59.9761 20.2662L60.8218 18.4538ZM59.0171 19.2185L59.2571 18.2585L57.3168 17.7735L57.0768 18.7335L59.0171 19.2185ZM58.2512 19.0154C59.1542 19.0476 60.3596 19.0797 61.8657 19.1118L61.9082 17.1122C60.4063 17.0803 59.2117 17.0484 58.3226 17.0166L58.2512 19.0154ZM61.8661 19.1118C63.4098 19.1439 65.0488 19.16 66.7829 19.16V17.16C65.061 17.16 63.436 17.1441 61.9078 17.1122L61.8661 19.1118ZM66.7829 19.16C68.4852 19.16 70.124 19.1439 71.6993 19.1118L71.6585 17.1122C70.0979 17.1441 68.4727 17.16 66.7829 17.16V19.16ZM71.6993 19.1118C73.2689 19.0798 74.6472 19.0477 75.834 19.0156L75.7799 17.0164C74.5987 17.0483 73.225 17.0802 71.6585 17.1122L71.6993 19.1118ZM74.8368 17.7735L74.5968 18.7335L76.5371 19.2185L76.7771 18.2585L74.8368 17.7735ZM75.5375 17.9764C74.4044 18.0098 73.4325 18.1434 72.6772 18.4217L73.3686 20.2983C73.8294 20.1286 74.5534 20.0062 75.5963 19.9756L75.5375 17.9764ZM72.7218 18.4064C71.8693 18.6756 71.1995 19.2217 70.7297 19.9905L72.4362 21.0334C72.6704 20.6503 72.9605 20.4284 73.3241 20.3136L72.7218 18.4064ZM70.721 20.005C70.331 20.668 69.9833 21.6378 69.6576 22.8431L71.5883 23.3649C71.9025 22.2022 72.1949 21.444 72.4449 21.019L70.721 20.005ZM69.6566 22.8468L63.3206 46.6548L65.2533 47.1692L71.5893 23.3612L69.6566 22.8468ZM83.8649 38.368L82.8948 38.1255L82.5842 39.368H83.8649V38.368ZM84.1049 37.408V36.408H83.3242L83.1348 37.1655L84.1049 37.408ZM91.1609 36.112L90.6201 35.2708L90.6109 35.2768L91.1609 36.112ZM94.3769 32.8L95.2363 33.3115L95.2414 33.3026L94.3769 32.8ZM96.1049 28.432L97.0797 28.6554L97.0807 28.651L96.1049 28.432ZM95.7689 20.32L94.9278 20.8608L94.9323 20.8678L94.9369 20.8747L95.7689 20.32ZM91.9289 19.312L91.2218 18.6049L91.1947 18.632L91.1697 18.6612L91.9289 19.312ZM91.4489 20.56L92.4252 20.7769L92.4275 20.766L91.4489 20.56ZM90.8249 23.104L91.7913 23.3612L91.7934 23.353L90.8249 23.104ZM84.4889 46.912L83.5226 46.6548L83.5206 46.6621L83.5188 46.6695L84.4889 46.912ZM84.2009 49.168L83.2023 49.2206L83.2025 49.2235L84.2009 49.168ZM84.9689 50.512L84.4142 51.3441L84.4457 51.365L84.4787 51.3836L84.9689 50.512ZM87.3209 51.04L88.3015 51.2361L88.5265 50.1112L87.3814 50.0418L87.3209 51.04ZM87.1289 52L87.0702 52.9983L87.9389 53.0494L88.1095 52.1961L87.1289 52ZM83.3369 51.904L83.3147 52.9038L83.3258 52.904H83.3369V51.904ZM73.5449 51.904V52.904H73.5546L73.5642 52.9038L73.5449 51.904ZM69.6569 52L68.6764 51.8039L68.4202 53.0847L69.7235 52.9978L69.6569 52ZM69.8489 51.04L69.7902 50.0417L69.0197 50.087L68.8684 50.8439L69.8489 51.04ZM72.3929 50.656L72.6941 51.6096L72.3929 50.656ZM74.7929 46.912L73.8266 46.6548L73.8246 46.6621L73.8228 46.6695L74.7929 46.912ZM81.1289 23.104L82.0953 23.3612L82.1034 23.3309L82.1095 23.3001L81.1289 23.104ZM81.4169 20.8L80.4185 20.7445L80.4169 20.7722V20.8H81.4169ZM80.7929 19.504L81.3337 18.6628L80.7929 19.504ZM78.2969 18.976L77.3268 18.7335L77.0325 19.9108L78.2444 19.9746L78.2969 18.976ZM78.5369 18.016L78.5714 17.0166L77.763 16.9887L77.5668 17.7735L78.5369 18.016ZM82.3769 18.112L82.3573 19.1118L82.3577 19.1118L82.3769 18.112ZM90.7769 18.112L90.7499 17.1124L90.7492 17.1124L90.7769 18.112ZM103.689 19.84L103.183 20.7023L103.188 20.7057L103.689 19.84ZM104.121 32.032L104.864 32.7017L104.869 32.6956L104.121 32.032ZM96.7289 36.688L97.0653 37.6298L97.0707 37.6278L96.7289 36.688ZM84.8351 38.6105L85.0751 37.6505L83.1348 37.1655L82.8948 38.1255L84.8351 38.6105ZM84.1049 38.408H86.2649V36.408H84.1049V38.408ZM86.2649 38.408C88.3649 38.408 90.2 37.9422 91.7109 36.9472L90.6109 35.2768C89.4979 36.0098 88.069 36.408 86.2649 36.408V38.408ZM91.7017 36.9532C93.1731 36.0073 94.3553 34.7915 95.2362 33.3115L93.5176 32.2885C92.7986 33.4965 91.8368 34.4887 90.6202 35.2708L91.7017 36.9532ZM95.2414 33.3026C96.0915 31.8405 96.705 30.2905 97.0797 28.6554L95.1302 28.2086C94.8009 29.6455 94.2624 31.0075 93.5124 32.2974L95.2414 33.3026ZM97.0807 28.651C97.4462 27.0228 97.6329 25.4768 97.6329 24.016H95.6329C95.6329 25.3072 95.4677 26.7052 95.1292 28.213L97.0807 28.651ZM97.6329 24.016C97.6329 22.3177 97.3309 20.8602 96.601 19.7653L94.9369 20.8747C95.359 21.5078 95.6329 22.5143 95.6329 24.016H97.6329ZM96.6101 19.7792C95.806 18.5285 94.4988 17.976 92.9369 17.976V19.976C93.9991 19.976 94.5798 20.3195 94.9278 20.8608L96.6101 19.7792ZM92.9369 17.976C92.3348 17.976 91.6995 18.1272 91.2218 18.6049L92.636 20.0191C92.6064 20.0488 92.6431 19.976 92.9369 19.976V17.976ZM91.1697 18.6612C90.8016 19.0907 90.6027 19.7256 90.4704 20.354L92.4275 20.766C92.4844 20.4955 92.5432 20.2942 92.5983 20.151C92.6561 20.0007 92.6942 19.9558 92.6882 19.9628L91.1697 18.6612ZM90.4727 20.3431C90.3484 20.9025 90.1438 21.7376 89.8564 22.855L91.7934 23.353C92.0821 22.2304 92.2934 21.3695 92.4251 20.7769L90.4727 20.3431ZM89.8586 22.8468L83.5226 46.6548L85.4553 47.1692L91.7913 23.3612L89.8586 22.8468ZM83.5188 46.6695C83.2818 47.6175 83.1631 48.4762 83.2023 49.2206L85.1996 49.1154C85.1747 48.6438 85.2481 47.9985 85.4591 47.1545L83.5188 46.6695ZM83.2025 49.2235C83.2519 50.1137 83.6723 50.8495 84.4142 51.3441L85.5236 49.68C85.3055 49.5345 85.2139 49.3743 85.1994 49.1125L83.2025 49.2235ZM84.4787 51.3836C85.1895 51.7834 86.1558 51.9712 87.2604 52.0382L87.3814 50.0418C86.3741 49.9808 85.7723 49.8166 85.4592 49.6404L84.4787 51.3836ZM86.3404 50.8439L86.1484 51.8039L88.1095 52.1961L88.3015 51.2361L86.3404 50.8439ZM87.1877 51.0017C86.0751 50.9363 84.7907 50.904 83.3369 50.904V52.904C84.7632 52.904 86.0068 52.9357 87.0702 52.9983L87.1877 51.0017ZM83.3592 50.9042C81.911 50.8721 80.3835 50.856 78.7769 50.856V52.856C80.3703 52.856 81.8829 52.8719 83.3147 52.9038L83.3592 50.9042ZM78.7769 50.856C76.9471 50.856 75.1967 50.8721 73.5257 50.9042L73.5642 52.9038C75.2212 52.8719 76.9587 52.856 78.7769 52.856V50.856ZM73.5449 50.904C71.9037 50.904 70.5825 50.9361 69.5904 51.0022L69.7235 52.9978C70.6513 52.9359 71.9222 52.904 73.5449 52.904V50.904ZM70.6375 52.1961L70.8295 51.2361L68.8684 50.8439L68.6764 51.8039L70.6375 52.1961ZM69.9077 52.0383C71.0287 51.9723 71.9712 51.8378 72.6941 51.6096L72.0918 49.7024C71.5986 49.8582 70.8452 49.9797 69.7902 50.0417L69.9077 52.0383ZM72.6941 51.6096C73.5465 51.3404 74.2164 50.7943 74.6862 50.0255L72.9797 48.9826C72.7455 49.3657 72.4553 49.5876 72.0918 49.7024L72.6941 51.6096ZM74.6862 50.0255C75.1166 49.3212 75.4661 48.3423 75.7631 47.1545L73.8228 46.6695C73.5437 47.7857 73.2533 48.5348 72.9797 48.9826L74.6862 50.0255ZM75.7593 47.1692L82.0953 23.3612L80.1626 22.8468L73.8266 46.6548L75.7593 47.1692ZM82.1095 23.3001C82.3068 22.3136 82.4169 21.4718 82.4169 20.8H80.4169C80.4169 21.2802 80.3351 21.9744 80.1484 22.9079L82.1095 23.3001ZM82.4154 20.8555C82.4653 19.9565 82.1141 19.1645 81.3337 18.6628L80.2522 20.3452C80.3677 20.4195 80.4325 20.4915 80.4185 20.7445L82.4154 20.8555ZM81.3337 18.6628C80.6429 18.2188 79.5691 18.0416 78.3495 17.9774L78.2444 19.9746C79.4568 20.0384 80.0469 20.2132 80.2522 20.3452L81.3337 18.6628ZM79.2671 19.2185L79.5071 18.2585L77.5668 17.7735L77.3268 18.7335L79.2671 19.2185ZM78.5025 19.0154C79.4378 19.0477 80.7235 19.0798 82.3573 19.1118L82.3965 17.1122C80.7664 17.0802 79.4921 17.0483 78.5714 17.0166L78.5025 19.0154ZM82.3577 19.1118C84.028 19.1439 85.6824 19.16 87.3209 19.16V17.16C85.6955 17.16 84.0539 17.1441 82.3962 17.1122L82.3577 19.1118ZM87.3209 19.16C88.4822 19.16 89.6435 19.1439 90.8047 19.1116L90.7492 17.1124C89.6064 17.1441 88.4637 17.16 87.3209 17.16V19.16ZM90.804 19.1116C91.979 19.0799 93.1539 19.064 94.3289 19.064V17.064C93.1359 17.064 91.9429 17.0801 90.7499 17.1124L90.804 19.1116ZM94.3289 19.064C98.498 19.064 101.4 19.6552 103.183 20.7023L104.195 18.9777C101.946 17.6568 98.6079 17.064 94.3289 17.064V19.064ZM103.188 20.7057C104.912 21.7021 105.761 23.1868 105.761 25.312H107.761C107.761 22.5092 106.562 20.3459 104.189 18.9743L103.188 20.7057ZM105.761 25.312C105.761 27.5473 104.982 29.5549 103.373 31.3684L104.869 32.6956C106.78 30.5411 107.761 28.0687 107.761 25.312H105.761ZM103.378 31.3624C101.754 33.1634 99.4437 34.6367 96.3872 35.7482L97.0707 37.6278C100.35 36.4353 102.967 34.8046 104.864 32.7016L103.378 31.3624ZM96.3926 35.7463C93.3876 36.8195 89.8577 37.368 85.7849 37.368V39.368C90.0322 39.368 93.7982 38.7965 97.0653 37.6297L96.3926 35.7463ZM85.7849 37.368H83.8649V39.368H85.7849V37.368Z" fill="black"/>
</svg>
